<?xml version="1.0" standalone="no"?>
 <!DOCTYPE svg PUBLIC "-//W3C//DTD SVG 1.1//EN" 
 "http://www.w3.org/Graphics/SVG/1.1/DTD/svg11.dtd"> 
<svg
  xmlns:svg="http://www.w3.org/2000/svg"
  xmlns="http://www.w3.org/2000/svg"
  xmlns:xlink="http://www.w3.org/1999/xlink"
  version="1.1"
  width="149.6314mm" height="59.5376mm" viewBox="0.0000 0.0000 149.6314 59.5376">
<title>SVG Image created as mixpower-profiler-hv-module-v2-F_Mask.svg date 2025/05/06 04:15:55 </title>
  <desc>Image generated by PCBNEW </desc>
<g style="fill:#000000; fill-opacity:1.0000;stroke:#000000; stroke-opacity:1.0000;
stroke-linecap:round; stroke-linejoin:round;"
 transform="translate(0 0) scale(1 1)">
<path style="fill:#D864FF; fill-opacity:0.4000; stroke:none;fill-rule:evenodd;"
d="M 134.1296,35.7236
130.5482,35.7236
130.5482,31.3803
134.1296,31.3803
Z" /> 
<path style="fill:#D864FF; fill-opacity:0.4000; stroke:none;fill-rule:evenodd;"
d="M 134.1310,55.4005
130.5496,55.4005
130.5496,51.0571
134.1310,51.0571
Z" /> 
<path style="fill:#D864FF; fill-opacity:0.4000; stroke:none;fill-rule:evenodd;"
d="M 103.0802,56.9436
101.5802,56.9436
101.5802,57.2436
103.0802,57.2436
Z" /> 
<path style="fill:#D864FF; fill-opacity:0.4000; stroke:none;fill-rule:evenodd;"
d="M 108.0332,56.9436
106.5332,56.9436
106.5332,57.2436
108.0332,57.2436
Z" /> 
<path style="fill:#D864FF; fill-opacity:0.4000; stroke:none;fill-rule:evenodd;"
d="M 134.1296,41.8196
130.5482,41.8196
130.5482,37.4763
134.1296,37.4763
Z" /> 
<path style="fill:#D864FF; fill-opacity:0.4000; stroke:none;fill-rule:evenodd;"
d="M 134.1781,28.1374
130.5967,28.1374
130.5967,23.7940
134.1781,23.7940
Z" /> 
<path style="fill:#D864FF; fill-opacity:0.4000; stroke:none;fill-rule:evenodd;"
d="M 134.1781,22.0566
130.5967,22.0566
130.5967,17.7132
134.1781,17.7132
Z" /> 
<path style="fill:#D864FF; fill-opacity:0.4000; stroke:none;fill-rule:evenodd;"
d="M 134.1310,49.2918
130.5496,49.2918
130.5496,44.9484
134.1310,44.9484
Z" /> 
<path style="fill:#D864FF; fill-opacity:0.4000; stroke:none;fill-rule:evenodd;"
d="M 144.1079,30.1449
147.1079,30.1449
147.1079,33.1450
144.1079,33.1450
Z" /> 
</g>
<g style="fill:#D864FF; fill-opacity:0.4000; stroke:none;">
<circle cx="145.6079" cy="36.7249" r="1.5000" /> 
</g>
<g style="fill:#D864FF; fill-opacity:0.4000; stroke:none;">
<circle cx="145.6079" cy="41.8049" r="1.5000" /> 
<path style="fill:#D864FF; fill-opacity:0.4000; stroke:none;fill-rule:evenodd;"
d="M 124.0434,35.1326
124.1008,35.1441
124.1495,35.1766
124.1820,35.2252
124.1934,35.2826
124.1934,36.9326
124.1820,36.9901
124.1495,37.0387
124.1008,37.0712
124.0434,37.0827
123.7434,37.0827
123.6860,37.0712
123.6373,37.0387
123.6048,36.9901
123.5934,36.9326
123.5934,35.2826
123.6048,35.2252
123.6373,35.1766
123.6860,35.1441
123.7434,35.1326
Z" /> 
<path style="fill:#D864FF; fill-opacity:0.4000; stroke:none;fill-rule:evenodd;"
d="M 122.7734,35.1326
122.8308,35.1441
122.8795,35.1766
122.9120,35.2252
122.9234,35.2826
122.9234,36.9326
122.9120,36.9901
122.8795,37.0387
122.8308,37.0712
122.7734,37.0827
122.4734,37.0827
122.4160,37.0712
122.3673,37.0387
122.3348,36.9901
122.3234,36.9326
122.3234,35.2826
122.3348,35.2252
122.3673,35.1766
122.4160,35.1441
122.4734,35.1326
Z" /> 
<path style="fill:#D864FF; fill-opacity:0.4000; stroke:none;fill-rule:evenodd;"
d="M 121.5034,35.1326
121.5608,35.1441
121.6095,35.1766
121.6420,35.2252
121.6534,35.2826
121.6534,36.9326
121.6420,36.9901
121.6095,37.0387
121.5608,37.0712
121.5034,37.0827
121.2034,37.0827
121.1460,37.0712
121.0973,37.0387
121.0648,36.9901
121.0534,36.9326
121.0534,35.2826
121.0648,35.2252
121.0973,35.1766
121.1460,35.1441
121.2034,35.1326
Z" /> 
<path style="fill:#D864FF; fill-opacity:0.4000; stroke:none;fill-rule:evenodd;"
d="M 120.2334,35.1326
120.2908,35.1441
120.3395,35.1766
120.3720,35.2252
120.3834,35.2826
120.3834,36.9326
120.3720,36.9901
120.3395,37.0387
120.2908,37.0712
120.2334,37.0827
119.9334,37.0827
119.8760,37.0712
119.8273,37.0387
119.7948,36.9901
119.7834,36.9326
119.7834,35.2826
119.7948,35.2252
119.8273,35.1766
119.8760,35.1441
119.9334,35.1326
Z" /> 
<path style="fill:#D864FF; fill-opacity:0.4000; stroke:none;fill-rule:evenodd;"
d="M 120.2334,40.0827
120.2908,40.0941
120.3395,40.1266
120.3720,40.1752
120.3834,40.2326
120.3834,41.8826
120.3720,41.9401
120.3395,41.9887
120.2908,42.0212
120.2334,42.0326
119.9334,42.0326
119.8760,42.0212
119.8273,41.9887
119.7948,41.9401
119.7834,41.8826
119.7834,40.2326
119.7948,40.1752
119.8273,40.1266
119.8760,40.0941
119.9334,40.0827
Z" /> 
<path style="fill:#D864FF; fill-opacity:0.4000; stroke:none;fill-rule:evenodd;"
d="M 121.5034,40.0827
121.5608,40.0941
121.6095,40.1266
121.6420,40.1752
121.6534,40.2326
121.6534,41.8826
121.6420,41.9401
121.6095,41.9887
121.5608,42.0212
121.5034,42.0326
121.2034,42.0326
121.1460,42.0212
121.0973,41.9887
121.0648,41.9401
121.0534,41.8826
121.0534,40.2326
121.0648,40.1752
121.0973,40.1266
121.1460,40.0941
121.2034,40.0827
Z" /> 
<path style="fill:#D864FF; fill-opacity:0.4000; stroke:none;fill-rule:evenodd;"
d="M 122.7734,40.0827
122.8308,40.0941
122.8795,40.1266
122.9120,40.1752
122.9234,40.2326
122.9234,41.8826
122.9120,41.9401
122.8795,41.9887
122.8308,42.0212
122.7734,42.0326
122.4734,42.0326
122.4160,42.0212
122.3673,41.9887
122.3348,41.9401
122.3234,41.8826
122.3234,40.2326
122.3348,40.1752
122.3673,40.1266
122.4160,40.0941
122.4734,40.0827
Z" /> 
<path style="fill:#D864FF; fill-opacity:0.4000; stroke:none;fill-rule:evenodd;"
d="M 124.0434,40.0827
124.1008,40.0941
124.1495,40.1266
124.1820,40.1752
124.1934,40.2326
124.1934,41.8826
124.1820,41.9401
124.1495,41.9887
124.1008,42.0212
124.0434,42.0326
123.7434,42.0326
123.6860,42.0212
123.6373,41.9887
123.6048,41.9401
123.5934,41.8826
123.5934,40.2326
123.6048,40.1752
123.6373,40.1266
123.6860,40.0941
123.7434,40.0827
Z" /> 
<path style="fill:#D864FF; fill-opacity:0.4000; stroke:none;fill-rule:evenodd;"
d="M 100.8547,32.9012
100.7590,32.8822
100.6779,32.8280
100.6237,32.7469
100.6047,32.6512
100.6047,30.6512
100.6237,30.5556
100.6779,30.4745
100.7590,30.4203
100.8547,30.4012
102.1547,30.4012
102.2504,30.4203
102.3315,30.4745
102.3857,30.5556
102.4047,30.6512
102.4047,32.6512
102.3857,32.7469
102.3315,32.8280
102.2504,32.8822
102.1547,32.9012
Z" /> 
<path style="fill:#D864FF; fill-opacity:0.4000; stroke:none;fill-rule:evenodd;"
d="M 100.8547,28.9012
100.7590,28.8822
100.6779,28.8280
100.6237,28.7469
100.6047,28.6512
100.6047,26.6512
100.6237,26.5556
100.6779,26.4745
100.7590,26.4203
100.8547,26.4012
102.1547,26.4012
102.2504,26.4203
102.3315,26.4745
102.3857,26.5556
102.4047,26.6512
102.4047,28.6512
102.3857,28.7469
102.3315,28.8280
102.2504,28.8822
102.1547,28.9012
Z" /> 
<path style="fill:#D864FF; fill-opacity:0.4000; stroke:none;fill-rule:evenodd;"
d="M 124.4303,17.7469
124.4151,17.8235
124.3717,17.8884
124.3068,17.9317
124.2303,17.9469
123.8303,17.9469
123.7538,17.9317
123.6889,17.8884
123.6455,17.8235
123.6303,17.7469
123.6303,17.1969
123.6455,17.1204
123.6889,17.0555
123.7538,17.0122
123.8303,16.9969
124.2303,16.9969
124.3068,17.0122
124.3717,17.0555
124.4151,17.1204
124.4303,17.1969
Z" /> 
<path style="fill:#D864FF; fill-opacity:0.4000; stroke:none;fill-rule:evenodd;"
d="M 122.7803,17.7469
122.7651,17.8235
122.7217,17.8884
122.6568,17.9317
122.5803,17.9469
122.1803,17.9469
122.1038,17.9317
122.0389,17.8884
121.9955,17.8235
121.9803,17.7469
121.9803,17.1969
121.9955,17.1204
122.0389,17.0555
122.1038,17.0122
122.1803,16.9969
122.5803,16.9969
122.6568,17.0122
122.7217,17.0555
122.7651,17.1204
122.7803,17.1969
Z" /> 
<path style="fill:#D864FF; fill-opacity:0.4000; stroke:none;fill-rule:evenodd;"
d="M 124.0777,21.3880
124.1351,21.3994
124.1838,21.4319
124.2163,21.4805
124.2277,21.5379
124.2277,23.1879
124.2163,23.2454
124.1838,23.2940
124.1351,23.3265
124.0777,23.3379
123.7777,23.3379
123.7203,23.3265
123.6716,23.2940
123.6391,23.2454
123.6277,23.1879
123.6277,21.5379
123.6391,21.4805
123.6716,21.4319
123.7203,21.3994
123.7777,21.3880
Z" /> 
<path style="fill:#D864FF; fill-opacity:0.4000; stroke:none;fill-rule:evenodd;"
d="M 122.8077,21.3880
122.8651,21.3994
122.9138,21.4319
122.9463,21.4805
122.9577,21.5379
122.9577,23.1879
122.9463,23.2454
122.9138,23.2940
122.8651,23.3265
122.8077,23.3379
122.5077,23.3379
122.4503,23.3265
122.4016,23.2940
122.3691,23.2454
122.3577,23.1879
122.3577,21.5379
122.3691,21.4805
122.4016,21.4319
122.4503,21.3994
122.5077,21.3880
Z" /> 
<path style="fill:#D864FF; fill-opacity:0.4000; stroke:none;fill-rule:evenodd;"
d="M 121.5377,21.3880
121.5951,21.3994
121.6438,21.4319
121.6763,21.4805
121.6877,21.5379
121.6877,23.1879
121.6763,23.2454
121.6438,23.2940
121.5951,23.3265
121.5377,23.3379
121.2377,23.3379
121.1803,23.3265
121.1316,23.2940
121.0991,23.2454
121.0877,23.1879
121.0877,21.5379
121.0991,21.4805
121.1316,21.4319
121.1803,21.3994
121.2377,21.3880
Z" /> 
<path style="fill:#D864FF; fill-opacity:0.4000; stroke:none;fill-rule:evenodd;"
d="M 120.2677,21.3880
120.3251,21.3994
120.3738,21.4319
120.4063,21.4805
120.4177,21.5379
120.4177,23.1879
120.4063,23.2454
120.3738,23.2940
120.3251,23.3265
120.2677,23.3379
119.9677,23.3379
119.9103,23.3265
119.8616,23.2940
119.8291,23.2454
119.8177,23.1879
119.8177,21.5379
119.8291,21.4805
119.8616,21.4319
119.9103,21.3994
119.9677,21.3880
Z" /> 
<path style="fill:#D864FF; fill-opacity:0.4000; stroke:none;fill-rule:evenodd;"
d="M 120.2677,26.3379
120.3251,26.3494
120.3738,26.3819
120.4063,26.4305
120.4177,26.4879
120.4177,28.1380
120.4063,28.1954
120.3738,28.2440
120.3251,28.2765
120.2677,28.2879
119.9677,28.2879
119.9103,28.2765
119.8616,28.2440
119.8291,28.1954
119.8177,28.1380
119.8177,26.4879
119.8291,26.4305
119.8616,26.3819
119.9103,26.3494
119.9677,26.3379
Z" /> 
<path style="fill:#D864FF; fill-opacity:0.4000; stroke:none;fill-rule:evenodd;"
d="M 121.5377,26.3379
121.5951,26.3494
121.6438,26.3819
121.6763,26.4305
121.6877,26.4879
121.6877,28.1380
121.6763,28.1954
121.6438,28.2440
121.5951,28.2765
121.5377,28.2879
121.2377,28.2879
121.1803,28.2765
121.1316,28.2440
121.0991,28.1954
121.0877,28.1380
121.0877,26.4879
121.0991,26.4305
121.1316,26.3819
121.1803,26.3494
121.2377,26.3379
Z" /> 
<path style="fill:#D864FF; fill-opacity:0.4000; stroke:none;fill-rule:evenodd;"
d="M 122.8077,26.3379
122.8651,26.3494
122.9138,26.3819
122.9463,26.4305
122.9577,26.4879
122.9577,28.1380
122.9463,28.1954
122.9138,28.2440
122.8651,28.2765
122.8077,28.2879
122.5077,28.2879
122.4503,28.2765
122.4016,28.2440
122.3691,28.1954
122.3577,28.1380
122.3577,26.4879
122.3691,26.4305
122.4016,26.3819
122.4503,26.3494
122.5077,26.3379
Z" /> 
<path style="fill:#D864FF; fill-opacity:0.4000; stroke:none;fill-rule:evenodd;"
d="M 124.0777,26.3379
124.1351,26.3494
124.1838,26.3819
124.2163,26.4305
124.2277,26.4879
124.2277,28.1380
124.2163,28.1954
124.1838,28.2440
124.1351,28.2765
124.0777,28.2879
123.7777,28.2879
123.7203,28.2765
123.6716,28.2440
123.6391,28.1954
123.6277,28.1380
123.6277,26.4879
123.6391,26.4305
123.6716,26.3819
123.7203,26.3494
123.7777,26.3379
Z" /> 
<path style="fill:#D864FF; fill-opacity:0.4000; stroke:none;fill-rule:evenodd;"
d="M 144.8322,48.0108
144.7786,48.0002
144.7332,47.9698
144.7028,47.9244
144.6922,47.8708
144.6922,47.5908
144.7028,47.5373
144.7332,47.4919
144.7786,47.4615
144.8322,47.4508
145.1722,47.4508
145.2258,47.4615
145.2712,47.4919
145.3015,47.5373
145.3122,47.5908
145.3122,47.8708
145.3015,47.9244
145.2712,47.9698
145.2258,48.0002
145.1722,48.0108
Z" /> 
<path style="fill:#D864FF; fill-opacity:0.4000; stroke:none;fill-rule:evenodd;"
d="M 144.8322,47.0508
144.7786,47.0402
144.7332,47.0098
144.7028,46.9644
144.6922,46.9108
144.6922,46.6308
144.7028,46.5773
144.7332,46.5319
144.7786,46.5015
144.8322,46.4908
145.1722,46.4908
145.2258,46.5015
145.2712,46.5319
145.3015,46.5773
145.3122,46.6308
145.3122,46.9108
145.3015,46.9644
145.2712,47.0098
145.2258,47.0402
145.1722,47.0508
Z" /> 
<path style="fill:#D864FF; fill-opacity:0.4000; stroke:none;fill-rule:evenodd;"
d="M 104.8046,30.3444
104.8160,30.2870
104.8485,30.2384
104.8972,30.2059
104.9546,30.1944
105.9796,30.1944
106.0370,30.2059
106.0857,30.2384
106.1182,30.2870
106.1296,30.3444
106.1296,30.6444
106.1182,30.7019
106.0857,30.7505
106.0370,30.7830
105.9796,30.7944
104.9546,30.7944
104.8972,30.7830
104.8485,30.7505
104.8160,30.7019
104.8046,30.6444
Z" /> 
<path style="fill:#D864FF; fill-opacity:0.4000; stroke:none;fill-rule:evenodd;"
d="M 104.8046,31.2944
104.8160,31.2370
104.8485,31.1884
104.8972,31.1559
104.9546,31.1444
105.9796,31.1444
106.0370,31.1559
106.0857,31.1884
106.1182,31.2370
106.1296,31.2944
106.1296,31.5944
106.1182,31.6519
106.0857,31.7005
106.0370,31.7330
105.9796,31.7444
104.9546,31.7444
104.8972,31.7330
104.8485,31.7005
104.8160,31.6519
104.8046,31.5944
Z" /> 
<path style="fill:#D864FF; fill-opacity:0.4000; stroke:none;fill-rule:evenodd;"
d="M 104.8046,32.2445
104.8160,32.1870
104.8485,32.1384
104.8972,32.1059
104.9546,32.0945
105.9796,32.0945
106.0370,32.1059
106.0857,32.1384
106.1182,32.1870
106.1296,32.2445
106.1296,32.5444
106.1182,32.6019
106.0857,32.6505
106.0370,32.6830
105.9796,32.6944
104.9546,32.6944
104.8972,32.6830
104.8485,32.6505
104.8160,32.6019
104.8046,32.5444
Z" /> 
<path style="fill:#D864FF; fill-opacity:0.4000; stroke:none;fill-rule:evenodd;"
d="M 107.0796,32.2445
107.0910,32.1870
107.1235,32.1384
107.1722,32.1059
107.2296,32.0945
108.2546,32.0945
108.3120,32.1059
108.3607,32.1384
108.3932,32.1870
108.4046,32.2445
108.4046,32.5444
108.3932,32.6019
108.3607,32.6505
108.3120,32.6830
108.2546,32.6944
107.2296,32.6944
107.1722,32.6830
107.1235,32.6505
107.0910,32.6019
107.0796,32.5444
Z" /> 
<path style="fill:#D864FF; fill-opacity:0.4000; stroke:none;fill-rule:evenodd;"
d="M 107.0796,31.2944
107.0910,31.2370
107.1235,31.1884
107.1722,31.1559
107.2296,31.1444
108.2546,31.1444
108.3120,31.1559
108.3607,31.1884
108.3932,31.2370
108.4046,31.2944
108.4046,31.5944
108.3932,31.6519
108.3607,31.7005
108.3120,31.7330
108.2546,31.7444
107.2296,31.7444
107.1722,31.7330
107.1235,31.7005
107.0910,31.6519
107.0796,31.5944
Z" /> 
<path style="fill:#D864FF; fill-opacity:0.4000; stroke:none;fill-rule:evenodd;"
d="M 107.0796,30.3444
107.0910,30.2870
107.1235,30.2384
107.1722,30.2059
107.2296,30.1944
108.2546,30.1944
108.3120,30.2059
108.3607,30.2384
108.3932,30.2870
108.4046,30.3444
108.4046,30.6444
108.3932,30.7019
108.3607,30.7505
108.3120,30.7830
108.2546,30.7944
107.2296,30.7944
107.1722,30.7830
107.1235,30.7505
107.0910,30.7019
107.0796,30.6444
Z" /> 
<path style="fill:#D864FF; fill-opacity:0.4000; stroke:none;fill-rule:evenodd;"
d="M 99.1275,58.1662
99.0438,58.1496
98.9729,58.1022
98.9254,58.0312
98.9088,57.9475
98.9088,57.5100
98.9254,57.4263
98.9729,57.3553
99.0438,57.3079
99.1275,57.2912
99.6400,57.2912
99.7238,57.3079
99.7947,57.3553
99.8421,57.4263
99.8588,57.5100
99.8588,57.9475
99.8421,58.0312
99.7947,58.1022
99.7238,58.1496
99.6400,58.1662
Z" /> 
<path style="fill:#D864FF; fill-opacity:0.4000; stroke:none;fill-rule:evenodd;"
d="M 99.1275,56.5912
99.0438,56.5746
98.9729,56.5272
98.9254,56.4562
98.9088,56.3725
98.9088,55.9350
98.9254,55.8513
98.9729,55.7803
99.0438,55.7329
99.1275,55.7162
99.6400,55.7162
99.7238,55.7329
99.7947,55.7803
99.8421,55.8513
99.8588,55.9350
99.8588,56.3725
99.8421,56.4562
99.7947,56.5272
99.7238,56.5746
99.6400,56.5912
Z" /> 
<path style="fill:#D864FF; fill-opacity:0.4000; stroke:none;fill-rule:evenodd;"
d="M 117.7923,42.0275
117.6966,42.0085
117.6155,41.9543
117.5613,41.8732
117.5423,41.7775
117.5423,41.2775
117.5613,41.1819
117.6155,41.1008
117.6966,41.0466
117.7923,41.0275
118.7423,41.0275
118.8380,41.0466
118.9191,41.1008
118.9733,41.1819
118.9923,41.2775
118.9923,41.7775
118.9733,41.8732
118.9191,41.9543
118.8380,42.0085
118.7423,42.0275
Z" /> 
<path style="fill:#D864FF; fill-opacity:0.4000; stroke:none;fill-rule:evenodd;"
d="M 117.7923,40.1275
117.6966,40.1085
117.6155,40.0543
117.5613,39.9732
117.5423,39.8775
117.5423,39.3775
117.5613,39.2819
117.6155,39.2008
117.6966,39.1466
117.7923,39.1275
118.7423,39.1275
118.8380,39.1466
118.9191,39.2008
118.9733,39.2819
118.9923,39.3775
118.9923,39.8775
118.9733,39.9732
118.9191,40.0543
118.8380,40.1085
118.7423,40.1275
Z" /> 
<path style="fill:#D864FF; fill-opacity:0.4000; stroke:none;fill-rule:evenodd;"
d="M 106.2725,35.7798
106.2622,35.8315
106.2329,35.8753
106.1892,35.9046
106.1375,35.9149
105.8675,35.9149
105.8158,35.9046
105.7720,35.8753
105.7428,35.8315
105.7325,35.7798
105.7325,35.4098
105.7428,35.3582
105.7720,35.3144
105.8158,35.2851
105.8675,35.2749
106.1375,35.2749
106.1892,35.2851
106.2329,35.3144
106.2622,35.3582
106.2725,35.4098
Z" /> 
<path style="fill:#D864FF; fill-opacity:0.4000; stroke:none;fill-rule:evenodd;"
d="M 105.2525,35.7798
105.2422,35.8315
105.2129,35.8753
105.1692,35.9046
105.1175,35.9149
104.8475,35.9149
104.7958,35.9046
104.7520,35.8753
104.7228,35.8315
104.7125,35.7798
104.7125,35.4098
104.7228,35.3582
104.7520,35.3144
104.7958,35.2851
104.8475,35.2749
105.1175,35.2749
105.1692,35.2851
105.2129,35.3144
105.2422,35.3582
105.2525,35.4098
Z" /> 
<path style="fill:#D864FF; fill-opacity:0.4000; stroke:none;fill-rule:evenodd;"
d="M 117.8191,55.6440
117.7234,55.6250
117.6423,55.5708
117.5881,55.4897
117.5691,55.3940
117.5691,54.8940
117.5881,54.7984
117.6423,54.7173
117.7234,54.6631
117.8191,54.6440
118.7691,54.6440
118.8648,54.6631
118.9459,54.7173
119.0001,54.7984
119.0191,54.8940
119.0191,55.3940
119.0001,55.4897
118.9459,55.5708
118.8648,55.6250
118.7691,55.6440
Z" /> 
<path style="fill:#D864FF; fill-opacity:0.4000; stroke:none;fill-rule:evenodd;"
d="M 117.8191,53.7440
117.7234,53.7250
117.6423,53.6708
117.5881,53.5897
117.5691,53.4940
117.5691,52.9940
117.5881,52.8984
117.6423,52.8173
117.7234,52.7631
117.8191,52.7440
118.7691,52.7440
118.8648,52.7631
118.9459,52.8173
119.0001,52.8984
119.0191,52.9940
119.0191,53.4940
119.0001,53.5897
118.9459,53.6708
118.8648,53.7250
118.7691,53.7440
Z" /> 
<path style="fill:#D864FF; fill-opacity:0.4000; stroke:none;fill-rule:evenodd;"
d="M 106.4719,17.7722
106.5676,17.7913
106.6487,17.8455
106.7029,17.9266
106.7219,18.0222
106.7219,18.5723
106.7029,18.6679
106.6487,18.7490
106.5676,18.8032
106.4719,18.8223
105.0719,18.8223
104.9762,18.8032
104.8951,18.7490
104.8409,18.6679
104.8219,18.5723
104.8219,18.0222
104.8409,17.9266
104.8951,17.8455
104.9762,17.7913
105.0719,17.7722
Z" /> 
<path style="fill:#D864FF; fill-opacity:0.4000; stroke:none;fill-rule:evenodd;"
d="M 106.4719,20.9222
106.5676,20.9413
106.6487,20.9955
106.7029,21.0766
106.7219,21.1722
106.7219,21.7222
106.7029,21.8179
106.6487,21.8990
106.5676,21.9532
106.4719,21.9722
105.0719,21.9722
104.9762,21.9532
104.8951,21.8990
104.8409,21.8179
104.8219,21.7222
104.8219,21.1722
104.8409,21.0766
104.8951,20.9955
104.9762,20.9413
105.0719,20.9222
Z" /> 
<path style="fill:#D864FF; fill-opacity:0.4000; stroke:none;fill-rule:evenodd;"
d="M 128.0082,31.8755
128.0082,31.4184
129.3290,31.4184
129.3290,31.8755
Z" /> 
<path style="fill:#D864FF; fill-opacity:0.4000; stroke:none;fill-rule:evenodd;"
d="M 128.0082,33.1456
128.0082,32.6883
129.3290,32.6883
129.3290,33.1456
Z" /> 
<path style="fill:#D864FF; fill-opacity:0.4000; stroke:none;fill-rule:evenodd;"
d="M 128.0082,34.4155
128.0082,33.9583
129.3290,33.9583
129.3290,34.4155
Z" /> 
<path style="fill:#D864FF; fill-opacity:0.4000; stroke:none;fill-rule:evenodd;"
d="M 128.0082,35.6855
128.0082,35.2283
129.3290,35.2283
129.3290,35.6855
Z" /> 
<path style="fill:#D864FF; fill-opacity:0.4000; stroke:none;fill-rule:evenodd;"
d="M 130.5482,35.7236
130.5482,34.7520
134.1296,34.7520
134.1296,35.7236
Z" /> 
<path style="fill:#D864FF; fill-opacity:0.4000; stroke:none;fill-rule:evenodd;"
d="M 133.6470,35.6855
133.6470,35.2283
134.9678,35.2283
134.9678,35.6855
Z" /> 
<path style="fill:#D864FF; fill-opacity:0.4000; stroke:none;fill-rule:evenodd;"
d="M 130.5482,34.7520
130.5482,33.5519
134.1296,33.5519
134.1296,34.7520
Z" /> 
<path style="fill:#D864FF; fill-opacity:0.4000; stroke:none;fill-rule:evenodd;"
d="M 133.6470,34.4155
133.6470,33.9583
134.9678,33.9583
134.9678,34.4155
Z" /> 
<path style="fill:#D864FF; fill-opacity:0.4000; stroke:none;fill-rule:evenodd;"
d="M 130.5482,33.5519
130.5482,32.2306
134.1296,32.2306
134.1296,33.5519
Z" /> 
<path style="fill:#D864FF; fill-opacity:0.4000; stroke:none;fill-rule:evenodd;"
d="M 133.6470,33.1456
133.6470,32.6883
134.9678,32.6883
134.9678,33.1456
Z" /> 
<path style="fill:#D864FF; fill-opacity:0.4000; stroke:none;fill-rule:evenodd;"
d="M 130.5482,32.2306
130.5482,31.3803
134.1380,31.3803
134.1380,32.2306
Z" /> 
<path style="fill:#D864FF; fill-opacity:0.4000; stroke:none;fill-rule:evenodd;"
d="M 133.6470,31.8755
133.6470,31.4184
134.9678,31.4184
134.9678,31.8755
Z" /> 
<path style="fill:#D864FF; fill-opacity:0.4000; stroke:none;fill-rule:evenodd;"
d="M 124.4204,31.4266
124.4052,31.5032
124.3618,31.5681
124.2969,31.6114
124.2204,31.6266
123.8204,31.6266
123.7439,31.6114
123.6790,31.5681
123.6356,31.5032
123.6204,31.4266
123.6204,30.8766
123.6356,30.8001
123.6790,30.7352
123.7439,30.6919
123.8204,30.6766
124.2204,30.6766
124.2969,30.6919
124.3618,30.7352
124.4052,30.8001
124.4204,30.8766
Z" /> 
<path style="fill:#D864FF; fill-opacity:0.4000; stroke:none;fill-rule:evenodd;"
d="M 122.7704,31.4266
122.7552,31.5032
122.7118,31.5681
122.6469,31.6114
122.5704,31.6266
122.1704,31.6266
122.0939,31.6114
122.0290,31.5681
121.9856,31.5032
121.9704,31.4266
121.9704,30.8766
121.9856,30.8001
122.0290,30.7352
122.0939,30.6919
122.1704,30.6766
122.5704,30.6766
122.6469,30.6919
122.7118,30.7352
122.7552,30.8001
122.7704,30.8766
Z" /> 
<path style="fill:#D864FF; fill-opacity:0.4000; stroke:none;fill-rule:evenodd;"
d="M 127.4171,41.8280
127.4019,41.9045
127.3585,41.9694
127.2936,42.0127
127.2171,42.0279
126.8171,42.0279
126.7406,42.0127
126.6757,41.9694
126.6323,41.9045
126.6171,41.8280
126.6171,41.2779
126.6323,41.2014
126.6757,41.1365
126.7406,41.0932
126.8171,41.0780
127.2171,41.0780
127.2936,41.0932
127.3585,41.1365
127.4019,41.2014
127.4171,41.2779
Z" /> 
<path style="fill:#D864FF; fill-opacity:0.4000; stroke:none;fill-rule:evenodd;"
d="M 125.7671,41.8280
125.7519,41.9045
125.7085,41.9694
125.6436,42.0127
125.5671,42.0279
125.1671,42.0279
125.0906,42.0127
125.0257,41.9694
124.9823,41.9045
124.9671,41.8280
124.9671,41.2779
124.9823,41.2014
125.0257,41.1365
125.0906,41.0932
125.1671,41.0780
125.5671,41.0780
125.6436,41.0932
125.7085,41.1365
125.7519,41.2014
125.7671,41.2779
Z" /> 
<path style="fill:#D864FF; fill-opacity:0.4000; stroke:none;fill-rule:evenodd;"
d="M 139.3623,21.5423
139.4580,21.5614
139.5391,21.6156
139.5933,21.6967
139.6123,21.7923
139.6123,22.5174
139.5933,22.6130
139.5391,22.6941
139.4580,22.7483
139.3623,22.7674
136.5123,22.7674
136.4166,22.7483
136.3355,22.6941
136.2813,22.6130
136.2623,22.5174
136.2623,21.7923
136.2813,21.6967
136.3355,21.6156
136.4166,21.5614
136.5123,21.5423
Z" /> 
<path style="fill:#D864FF; fill-opacity:0.4000; stroke:none;fill-rule:evenodd;"
d="M 139.3623,27.4673
139.4580,27.4864
139.5391,27.5406
139.5933,27.6217
139.6123,27.7173
139.6123,28.4423
139.5933,28.5380
139.5391,28.6191
139.4580,28.6733
139.3623,28.6923
136.5123,28.6923
136.4166,28.6733
136.3355,28.6191
136.2813,28.5380
136.2623,28.4423
136.2623,27.7173
136.2813,27.6217
136.3355,27.5406
136.4166,27.4864
136.5123,27.4673
Z" /> 
<path style="fill:#D864FF; fill-opacity:0.4000; stroke:none;fill-rule:evenodd;"
d="M 124.4521,19.6741
124.4331,19.7698
124.3789,19.8509
124.2978,19.9051
124.2021,19.9241
123.7021,19.9241
123.6064,19.9051
123.5253,19.8509
123.4711,19.7698
123.4521,19.6741
123.4521,18.7241
123.4711,18.6285
123.5253,18.5474
123.6064,18.4932
123.7021,18.4741
124.2021,18.4741
124.2978,18.4932
124.3789,18.5474
124.4331,18.6285
124.4521,18.7241
Z" /> 
<path style="fill:#D864FF; fill-opacity:0.4000; stroke:none;fill-rule:evenodd;"
d="M 122.5521,19.6741
122.5331,19.7698
122.4789,19.8509
122.3978,19.9051
122.3021,19.9241
121.8021,19.9241
121.7064,19.9051
121.6253,19.8509
121.5711,19.7698
121.5521,19.6741
121.5521,18.7241
121.5711,18.6285
121.6253,18.5474
121.7064,18.4932
121.8021,18.4741
122.3021,18.4741
122.3978,18.4932
122.4789,18.5474
122.5331,18.6285
122.5521,18.7241
Z" /> 
<path style="fill:#D864FF; fill-opacity:0.4000; stroke:none;fill-rule:evenodd;"
d="M 145.7620,46.8546
145.7810,46.7590
145.8352,46.6779
145.9163,46.6237
146.0120,46.6046
146.5120,46.6046
146.6077,46.6237
146.6888,46.6779
146.7430,46.7590
146.7620,46.8546
146.7620,47.8046
146.7430,47.9003
146.6888,47.9814
146.6077,48.0356
146.5120,48.0546
146.0120,48.0546
145.9163,48.0356
145.8352,47.9814
145.7810,47.9003
145.7620,47.8046
Z" /> 
<path style="fill:#D864FF; fill-opacity:0.4000; stroke:none;fill-rule:evenodd;"
d="M 147.6620,46.8546
147.6810,46.7590
147.7352,46.6779
147.8163,46.6237
147.9120,46.6046
148.4120,46.6046
148.5077,46.6237
148.5888,46.6779
148.6430,46.7590
148.6620,46.8546
148.6620,47.8046
148.6430,47.9003
148.5888,47.9814
148.5077,48.0356
148.4120,48.0546
147.9120,48.0546
147.8163,48.0356
147.7352,47.9814
147.6810,47.9003
147.6620,47.8046
Z" /> 
<path style="fill:#D864FF; fill-opacity:0.4000; stroke:none;fill-rule:evenodd;"
d="M 106.2779,36.7047
106.2672,36.7582
106.2369,36.8036
106.1915,36.8340
106.1379,36.8447
105.8579,36.8447
105.8043,36.8340
105.7589,36.8036
105.7285,36.7582
105.7179,36.7047
105.7179,36.3646
105.7285,36.3111
105.7589,36.2657
105.8043,36.2353
105.8579,36.2246
106.1379,36.2246
106.1915,36.2353
106.2369,36.2657
106.2672,36.3111
106.2779,36.3646
Z" /> 
<path style="fill:#D864FF; fill-opacity:0.4000; stroke:none;fill-rule:evenodd;"
d="M 105.3179,36.7047
105.3072,36.7582
105.2769,36.8036
105.2315,36.8340
105.1779,36.8447
104.8979,36.8447
104.8443,36.8340
104.7989,36.8036
104.7685,36.7582
104.7579,36.7047
104.7579,36.3646
104.7685,36.3111
104.7989,36.2657
104.8443,36.2353
104.8979,36.2246
105.1779,36.2246
105.2315,36.2353
105.2769,36.2657
105.3072,36.3111
105.3179,36.3646
Z" /> 
<path style="fill:#D864FF; fill-opacity:0.4000; stroke:none;fill-rule:evenodd;"
d="M 100.4180,57.8736
100.3663,57.8634
100.3225,57.8341
100.2933,57.7903
100.2830,57.7386
100.2830,57.4686
100.2933,57.4170
100.3225,57.3732
100.3663,57.3439
100.4180,57.3336
100.7880,57.3336
100.8397,57.3439
100.8834,57.3732
100.9127,57.4170
100.9230,57.4686
100.9230,57.7386
100.9127,57.7903
100.8834,57.8341
100.8397,57.8634
100.7880,57.8736
Z" /> 
<path style="fill:#D864FF; fill-opacity:0.4000; stroke:none;fill-rule:evenodd;"
d="M 100.4180,56.8536
100.3663,56.8434
100.3225,56.8141
100.2933,56.7703
100.2830,56.7186
100.2830,56.4487
100.2933,56.3970
100.3225,56.3532
100.3663,56.3239
100.4180,56.3136
100.7880,56.3136
100.8397,56.3239
100.8834,56.3532
100.9127,56.3970
100.9230,56.4487
100.9230,56.7186
100.9127,56.7703
100.8834,56.8141
100.8397,56.8434
100.7880,56.8536
Z" /> 
<path style="fill:#D864FF; fill-opacity:0.4000; stroke:none;fill-rule:evenodd;"
d="M 124.5391,34.5602
124.5284,34.6137
124.4981,34.6591
124.4527,34.6895
124.3991,34.7002
124.1191,34.7002
124.0655,34.6895
124.0201,34.6591
123.9897,34.6137
123.9791,34.5602
123.9791,34.2201
123.9897,34.1666
124.0201,34.1212
124.0655,34.0908
124.1191,34.0801
124.3991,34.0801
124.4527,34.0908
124.4981,34.1212
124.5284,34.1666
124.5391,34.2201
Z" /> 
<path style="fill:#D864FF; fill-opacity:0.4000; stroke:none;fill-rule:evenodd;"
d="M 123.5791,34.5602
123.5684,34.6137
123.5381,34.6591
123.4927,34.6895
123.4391,34.7002
123.1591,34.7002
123.1055,34.6895
123.0601,34.6591
123.0297,34.6137
123.0191,34.5602
123.0191,34.2201
123.0297,34.1666
123.0601,34.1212
123.1055,34.0908
123.1591,34.0801
123.4391,34.0801
123.4927,34.0908
123.5381,34.1212
123.5684,34.1666
123.5791,34.2201
Z" /> 
<path style="fill:#D864FF; fill-opacity:0.4000; stroke:none;fill-rule:evenodd;"
d="M 124.5495,20.8169
124.5388,20.8705
124.5085,20.9159
124.4631,20.9463
124.4095,20.9569
124.1295,20.9569
124.0759,20.9463
124.0305,20.9159
124.0002,20.8705
123.9895,20.8169
123.9895,20.4769
124.0002,20.4234
124.0305,20.3780
124.0759,20.3476
124.1295,20.3369
124.4095,20.3369
124.4631,20.3476
124.5085,20.3780
124.5388,20.4234
124.5495,20.4769
Z" /> 
<path style="fill:#D864FF; fill-opacity:0.4000; stroke:none;fill-rule:evenodd;"
d="M 123.5895,20.8169
123.5788,20.8705
123.5485,20.9159
123.5031,20.9463
123.4495,20.9569
123.1695,20.9569
123.1159,20.9463
123.0705,20.9159
123.0402,20.8705
123.0295,20.8169
123.0295,20.4769
123.0402,20.4234
123.0705,20.3780
123.1159,20.3476
123.1695,20.3369
123.4495,20.3369
123.5031,20.3476
123.5485,20.3780
123.5788,20.4234
123.5895,20.4769
Z" /> 
<path style="fill:#D864FF; fill-opacity:0.4000; stroke:none;fill-rule:evenodd;"
d="M 127.4171,40.3293
127.4019,40.4059
127.3585,40.4708
127.2936,40.5141
127.2171,40.5294
126.8171,40.5294
126.7406,40.5141
126.6757,40.4708
126.6323,40.4059
126.6171,40.3293
126.6171,39.7794
126.6323,39.7028
126.6757,39.6379
126.7406,39.5946
126.8171,39.5793
127.2171,39.5793
127.2936,39.5946
127.3585,39.6379
127.4019,39.7028
127.4171,39.7794
Z" /> 
<path style="fill:#D864FF; fill-opacity:0.4000; stroke:none;fill-rule:evenodd;"
d="M 125.7671,40.3293
125.7519,40.4059
125.7085,40.4708
125.6436,40.5141
125.5671,40.5294
125.1671,40.5294
125.0906,40.5141
125.0257,40.4708
124.9823,40.4059
124.9671,40.3293
124.9671,39.7794
124.9823,39.7028
125.0257,39.6379
125.0906,39.5946
125.1671,39.5793
125.5671,39.5793
125.6436,39.5946
125.7085,39.6379
125.7519,39.7028
125.7671,39.7794
Z" /> 
<path style="fill:#D864FF; fill-opacity:0.4000; stroke:none;fill-rule:evenodd;"
d="M 125.5977,25.3148
125.5020,25.2957
125.4209,25.2415
125.3667,25.1604
125.3477,25.0648
125.3477,24.4647
125.3667,24.3691
125.4209,24.2880
125.5020,24.2338
125.5977,24.2147
126.1977,24.2147
126.2934,24.2338
126.3745,24.2880
126.4287,24.3691
126.4477,24.4647
126.4477,25.0648
126.4287,25.1604
126.3745,25.2415
126.2934,25.2957
126.1977,25.3148
Z" /> 
<path style="fill:#D864FF; fill-opacity:0.4000; stroke:none;fill-rule:evenodd;"
d="M 125.5977,22.5147
125.5020,22.4957
125.4209,22.4415
125.3667,22.3604
125.3477,22.2647
125.3477,21.6647
125.3667,21.5691
125.4209,21.4880
125.5020,21.4338
125.5977,21.4147
126.1977,21.4147
126.2934,21.4338
126.3745,21.4880
126.4287,21.5691
126.4477,21.6647
126.4477,22.2647
126.4287,22.3604
126.3745,22.4415
126.2934,22.4957
126.1977,22.5147
Z" /> 
<path style="fill:#D864FF; fill-opacity:0.4000; stroke:none;fill-rule:evenodd;"
d="M 104.7125,34.4446
104.7228,34.3930
104.7520,34.3492
104.7958,34.3199
104.8475,34.3096
105.1175,34.3096
105.1692,34.3199
105.2129,34.3492
105.2422,34.3930
105.2525,34.4446
105.2525,34.8147
105.2422,34.8663
105.2129,34.9101
105.1692,34.9394
105.1175,34.9496
104.8475,34.9496
104.7958,34.9394
104.7520,34.9101
104.7228,34.8663
104.7125,34.8147
Z" /> 
<path style="fill:#D864FF; fill-opacity:0.4000; stroke:none;fill-rule:evenodd;"
d="M 105.7325,34.4446
105.7428,34.3930
105.7720,34.3492
105.8158,34.3199
105.8675,34.3096
106.1375,34.3096
106.1892,34.3199
106.2329,34.3492
106.2622,34.3930
106.2725,34.4446
106.2725,34.8147
106.2622,34.8663
106.2329,34.9101
106.1892,34.9394
106.1375,34.9496
105.8675,34.9496
105.8158,34.9394
105.7720,34.9101
105.7428,34.8663
105.7325,34.8147
Z" /> 
<path style="fill:#D864FF; fill-opacity:0.4000; stroke:none;fill-rule:evenodd;"
d="M 103.0199,24.0808
103.0009,24.1765
102.9467,24.2576
102.8656,24.3118
102.7699,24.3308
102.2699,24.3308
102.1742,24.3118
102.0931,24.2576
102.0389,24.1765
102.0199,24.0808
102.0199,23.1308
102.0389,23.0352
102.0931,22.9541
102.1742,22.8999
102.2699,22.8808
102.7699,22.8808
102.8656,22.8999
102.9467,22.9541
103.0009,23.0352
103.0199,23.1308
Z" /> 
<path style="fill:#D864FF; fill-opacity:0.4000; stroke:none;fill-rule:evenodd;"
d="M 101.1199,24.0808
101.1009,24.1765
101.0467,24.2576
100.9656,24.3118
100.8699,24.3308
100.3699,24.3308
100.2742,24.3118
100.1931,24.2576
100.1389,24.1765
100.1199,24.0808
100.1199,23.1308
100.1389,23.0352
100.1931,22.9541
100.2742,22.8999
100.3699,22.8808
100.8699,22.8808
100.9656,22.8999
101.0467,22.9541
101.1009,23.0352
101.1199,23.1308
Z" /> 
<path style="fill:#D864FF; fill-opacity:0.4000; stroke:none;fill-rule:evenodd;"
d="M 117.8535,28.2945
117.7578,28.2755
117.6767,28.2213
117.6225,28.1402
117.6035,28.0445
117.6035,27.5445
117.6225,27.4489
117.6767,27.3678
117.7578,27.3136
117.8535,27.2945
118.8035,27.2945
118.8992,27.3136
118.9803,27.3678
119.0345,27.4489
119.0535,27.5445
119.0535,28.0445
119.0345,28.1402
118.9803,28.2213
118.8992,28.2755
118.8035,28.2945
Z" /> 
<path style="fill:#D864FF; fill-opacity:0.4000; stroke:none;fill-rule:evenodd;"
d="M 117.8535,26.3945
117.7578,26.3755
117.6767,26.3213
117.6225,26.2402
117.6035,26.1445
117.6035,25.6445
117.6225,25.5489
117.6767,25.4678
117.7578,25.4136
117.8535,25.3945
118.8035,25.3945
118.8992,25.4136
118.9803,25.4678
119.0345,25.5489
119.0535,25.6445
119.0535,26.1445
119.0345,26.2402
118.9803,26.3213
118.8992,26.3755
118.8035,26.3945
Z" /> 
<path style="fill:#D864FF; fill-opacity:0.4000; stroke:none;fill-rule:evenodd;"
d="M 96.3882,42.9810
96.3499,42.9734
96.3175,42.9518
96.2958,42.9193
96.2882,42.8810
96.2882,42.4310
96.2958,42.3928
96.3175,42.3603
96.3499,42.3387
96.3882,42.3310
96.5882,42.3310
96.6265,42.3387
96.6589,42.3603
96.6806,42.3928
96.6882,42.4310
96.6882,42.8810
96.6806,42.9193
96.6589,42.9518
96.6265,42.9734
96.5882,42.9810
Z" /> 
<path style="fill:#D864FF; fill-opacity:0.4000; stroke:none;fill-rule:evenodd;"
d="M 97.0382,42.9810
96.9999,42.9734
96.9675,42.9518
96.9458,42.9193
96.9382,42.8810
96.9382,42.4310
96.9458,42.3928
96.9675,42.3603
96.9999,42.3387
97.0382,42.3310
97.2382,42.3310
97.2765,42.3387
97.3089,42.3603
97.3306,42.3928
97.3382,42.4310
97.3382,42.8810
97.3306,42.9193
97.3089,42.9518
97.2765,42.9734
97.2382,42.9810
Z" /> 
<path style="fill:#D864FF; fill-opacity:0.4000; stroke:none;fill-rule:evenodd;"
d="M 97.6882,42.9810
97.6499,42.9734
97.6175,42.9518
97.5958,42.9193
97.5882,42.8810
97.5882,42.4310
97.5958,42.3928
97.6175,42.3603
97.6499,42.3387
97.6882,42.3310
97.8882,42.3310
97.9265,42.3387
97.9589,42.3603
97.9806,42.3928
97.9882,42.4310
97.9882,42.8810
97.9806,42.9193
97.9589,42.9518
97.9265,42.9734
97.8882,42.9810
Z" /> 
<path style="fill:#D864FF; fill-opacity:0.4000; stroke:none;fill-rule:evenodd;"
d="M 97.6882,41.0810
97.6499,41.0734
97.6175,41.0518
97.5958,41.0193
97.5882,40.9810
97.5882,40.5311
97.5958,40.4928
97.6175,40.4603
97.6499,40.4387
97.6882,40.4310
97.8882,40.4310
97.9265,40.4387
97.9589,40.4603
97.9806,40.4928
97.9882,40.5311
97.9882,40.9810
97.9806,41.0193
97.9589,41.0518
97.9265,41.0734
97.8882,41.0810
Z" /> 
<path style="fill:#D864FF; fill-opacity:0.4000; stroke:none;fill-rule:evenodd;"
d="M 97.0382,41.0810
96.9999,41.0734
96.9675,41.0518
96.9458,41.0193
96.9382,40.9810
96.9382,40.5311
96.9458,40.4928
96.9675,40.4603
96.9999,40.4387
97.0382,40.4310
97.2382,40.4310
97.2765,40.4387
97.3089,40.4603
97.3306,40.4928
97.3382,40.5311
97.3382,40.9810
97.3306,41.0193
97.3089,41.0518
97.2765,41.0734
97.2382,41.0810
Z" /> 
<path style="fill:#D864FF; fill-opacity:0.4000; stroke:none;fill-rule:evenodd;"
d="M 96.3882,41.0810
96.3499,41.0734
96.3175,41.0518
96.2958,41.0193
96.2882,40.9810
96.2882,40.5311
96.2958,40.4928
96.3175,40.4603
96.3499,40.4387
96.3882,40.4310
96.5882,40.4310
96.6265,40.4387
96.6589,40.4603
96.6806,40.4928
96.6882,40.5311
96.6882,40.9810
96.6806,41.0193
96.6589,41.0518
96.6265,41.0734
96.5882,41.0810
Z" /> 
<path style="fill:#D864FF; fill-opacity:0.4000; stroke:none;fill-rule:evenodd;"
d="M 116.9165,24.8621
116.8208,24.8431
116.7397,24.7889
116.6855,24.7078
116.6665,24.6121
116.6665,22.6121
116.6855,22.5165
116.7397,22.4354
116.8208,22.3812
116.9165,22.3621
118.2165,22.3621
118.3122,22.3812
118.3933,22.4354
118.4475,22.5165
118.4665,22.6121
118.4665,24.6121
118.4475,24.7078
118.3933,24.7889
118.3122,24.8431
118.2165,24.8621
Z" /> 
<path style="fill:#D864FF; fill-opacity:0.4000; stroke:none;fill-rule:evenodd;"
d="M 116.9165,20.8621
116.8208,20.8431
116.7397,20.7889
116.6855,20.7078
116.6665,20.6121
116.6665,18.6121
116.6855,18.5165
116.7397,18.4354
116.8208,18.3812
116.9165,18.3621
118.2165,18.3621
118.3122,18.3812
118.3933,18.4354
118.4475,18.5165
118.4665,18.6121
118.4665,20.6121
118.4475,20.7078
118.3933,20.7889
118.3122,20.8431
118.2165,20.8621
Z" /> 
<path style="fill:#D864FF; fill-opacity:0.4000; stroke:none;fill-rule:evenodd;"
d="M 124.5431,48.1537
124.5324,48.2073
124.5021,48.2527
124.4567,48.2831
124.4031,48.2937
124.1231,48.2937
124.0695,48.2831
124.0241,48.2527
123.9937,48.2073
123.9831,48.1537
123.9831,47.8137
123.9937,47.7602
124.0241,47.7148
124.0695,47.6844
124.1231,47.6737
124.4031,47.6737
124.4567,47.6844
124.5021,47.7148
124.5324,47.7602
124.5431,47.8137
Z" /> 
<path style="fill:#D864FF; fill-opacity:0.4000; stroke:none;fill-rule:evenodd;"
d="M 123.5831,48.1537
123.5724,48.2073
123.5421,48.2527
123.4967,48.2831
123.4431,48.2937
123.1631,48.2937
123.1095,48.2831
123.0641,48.2527
123.0337,48.2073
123.0231,48.1537
123.0231,47.8137
123.0337,47.7602
123.0641,47.7148
123.1095,47.6844
123.1631,47.6737
123.4431,47.6737
123.4967,47.6844
123.5421,47.7148
123.5724,47.7602
123.5831,47.8137
Z" /> 
<path style="fill:#D864FF; fill-opacity:0.4000; stroke:none;fill-rule:evenodd;"
d="M 128.0096,51.5524
128.0096,51.0952
129.3304,51.0952
129.3304,51.5524
Z" /> 
<path style="fill:#D864FF; fill-opacity:0.4000; stroke:none;fill-rule:evenodd;"
d="M 128.0096,52.8224
128.0096,52.3652
129.3304,52.3652
129.3304,52.8224
Z" /> 
<path style="fill:#D864FF; fill-opacity:0.4000; stroke:none;fill-rule:evenodd;"
d="M 128.0096,54.0924
128.0096,53.6352
129.3304,53.6352
129.3304,54.0924
Z" /> 
<path style="fill:#D864FF; fill-opacity:0.4000; stroke:none;fill-rule:evenodd;"
d="M 128.0096,55.3624
128.0096,54.9052
129.3304,54.9052
129.3304,55.3624
Z" /> 
<path style="fill:#D864FF; fill-opacity:0.4000; stroke:none;fill-rule:evenodd;"
d="M 130.5496,55.4005
130.5496,54.4788
134.1310,54.4788
134.1310,55.4005
Z" /> 
<path style="fill:#D864FF; fill-opacity:0.4000; stroke:none;fill-rule:evenodd;"
d="M 133.6484,55.3624
133.6484,54.9052
134.9692,54.9052
134.9692,55.3624
Z" /> 
<path style="fill:#D864FF; fill-opacity:0.4000; stroke:none;fill-rule:evenodd;"
d="M 130.5496,54.4788
130.5496,53.3288
134.1310,53.3288
134.1310,54.4788
Z" /> 
<path style="fill:#D864FF; fill-opacity:0.4000; stroke:none;fill-rule:evenodd;"
d="M 133.6484,54.0924
133.6484,53.6352
134.9692,53.6352
134.9692,54.0924
Z" /> 
<path style="fill:#D864FF; fill-opacity:0.4000; stroke:none;fill-rule:evenodd;"
d="M 130.5496,53.3288
130.5496,52.0288
134.1394,52.0288
134.1394,53.3288
Z" /> 
<path style="fill:#D864FF; fill-opacity:0.4000; stroke:none;fill-rule:evenodd;"
d="M 133.6484,52.8224
133.6484,52.3652
134.9692,52.3652
134.9692,52.8224
Z" /> 
<path style="fill:#D864FF; fill-opacity:0.4000; stroke:none;fill-rule:evenodd;"
d="M 130.5496,52.0288
130.5496,51.0571
134.1394,51.0571
134.1394,52.0288
Z" /> 
<path style="fill:#D864FF; fill-opacity:0.4000; stroke:none;fill-rule:evenodd;"
d="M 133.6484,51.5524
133.6484,51.0952
134.9692,51.0952
134.9692,51.5524
Z" /> 
<path style="fill:#D864FF; fill-opacity:0.4000; stroke:none;fill-rule:evenodd;"
d="M 139.2466,35.2347
139.3423,35.2538
139.4234,35.3080
139.4776,35.3891
139.4966,35.4847
139.4966,36.2097
139.4776,36.3054
139.4234,36.3865
139.3423,36.4407
139.2466,36.4597
136.3966,36.4597
136.3009,36.4407
136.2198,36.3865
136.1656,36.3054
136.1466,36.2097
136.1466,35.4847
136.1656,35.3891
136.2198,35.3080
136.3009,35.2538
136.3966,35.2347
Z" /> 
<path style="fill:#D864FF; fill-opacity:0.4000; stroke:none;fill-rule:evenodd;"
d="M 139.2466,41.1597
139.3423,41.1788
139.4234,41.2330
139.4776,41.3141
139.4966,41.4097
139.4966,42.1347
139.4776,42.2304
139.4234,42.3115
139.3423,42.3657
139.2466,42.3847
136.3966,42.3847
136.3009,42.3657
136.2198,42.3115
136.1656,42.2304
136.1466,42.1347
136.1466,41.4097
136.1656,41.3141
136.2198,41.2330
136.3009,41.1788
136.3966,41.1597
Z" /> 
<path style="fill:#D864FF; fill-opacity:0.4000; stroke:none;fill-rule:evenodd;"
d="M 125.5633,52.6515
125.4676,52.6325
125.3865,52.5783
125.3323,52.4972
125.3133,52.4015
125.3133,51.8015
125.3323,51.7059
125.3865,51.6248
125.4676,51.5706
125.5633,51.5515
126.1633,51.5515
126.2590,51.5706
126.3401,51.6248
126.3943,51.7059
126.4133,51.8015
126.4133,52.4015
126.3943,52.4972
126.3401,52.5783
126.2590,52.6325
126.1633,52.6515
Z" /> 
<path style="fill:#D864FF; fill-opacity:0.4000; stroke:none;fill-rule:evenodd;"
d="M 125.5633,49.8515
125.4676,49.8325
125.3865,49.7783
125.3323,49.6972
125.3133,49.6015
125.3133,49.0015
125.3323,48.9059
125.3865,48.8248
125.4676,48.7706
125.5633,48.7515
126.1633,48.7515
126.2590,48.7706
126.3401,48.8248
126.3943,48.9059
126.4133,49.0015
126.4133,49.6015
126.3943,49.6972
126.3401,49.7783
126.2590,49.8325
126.1633,49.8515
Z" /> 
<path style="fill:#D864FF; fill-opacity:0.4000; stroke:none;fill-rule:evenodd;"
d="M 124.4340,45.0583
124.4188,45.1349
124.3754,45.1998
124.3105,45.2431
124.2340,45.2583
123.8340,45.2583
123.7575,45.2431
123.6926,45.1998
123.6492,45.1349
123.6340,45.0583
123.6340,44.5083
123.6492,44.4318
123.6926,44.3669
123.7575,44.3236
123.8340,44.3083
124.2340,44.3083
124.3105,44.3236
124.3754,44.3669
124.4188,44.4318
124.4340,44.5083
Z" /> 
<path style="fill:#D864FF; fill-opacity:0.4000; stroke:none;fill-rule:evenodd;"
d="M 122.7840,45.0583
122.7688,45.1349
122.7254,45.1998
122.6605,45.2431
122.5840,45.2583
122.1840,45.2583
122.1075,45.2431
122.0426,45.1998
121.9992,45.1349
121.9840,45.0583
121.9840,44.5083
121.9992,44.4318
122.0426,44.3669
122.1075,44.3236
122.1840,44.3083
122.5840,44.3083
122.6605,44.3236
122.7254,44.3669
122.7688,44.4318
122.7840,44.5083
Z" /> 
<path style="fill:#D864FF; fill-opacity:0.4000; stroke:none;fill-rule:evenodd;"
d="M 127.4312,55.4088
127.4160,55.4854
127.3726,55.5503
127.3077,55.5936
127.2312,55.6088
126.8312,55.6088
126.7547,55.5936
126.6898,55.5503
126.6464,55.4854
126.6312,55.4088
126.6312,54.8588
126.6464,54.7823
126.6898,54.7174
126.7547,54.6741
126.8312,54.6588
127.2312,54.6588
127.3077,54.6741
127.3726,54.7174
127.4160,54.7823
127.4312,54.8588
Z" /> 
<path style="fill:#D864FF; fill-opacity:0.4000; stroke:none;fill-rule:evenodd;"
d="M 125.7812,55.4088
125.7660,55.4854
125.7226,55.5503
125.6577,55.5936
125.5812,55.6088
125.1812,55.6088
125.1047,55.5936
125.0398,55.5503
124.9964,55.4854
124.9812,55.4088
124.9812,54.8588
124.9964,54.7823
125.0398,54.7174
125.1047,54.6741
125.1812,54.6588
125.5812,54.6588
125.6577,54.6741
125.7226,54.7174
125.7660,54.7823
125.7812,54.8588
Z" /> 
<path style="fill:#D864FF; fill-opacity:0.4000; stroke:none;fill-rule:evenodd;"
d="M 102.1321,33.4234
102.2278,33.4425
102.3089,33.4967
102.3631,33.5778
102.3821,33.6734
102.3821,34.1734
102.3631,34.2691
102.3089,34.3502
102.2278,34.4044
102.1321,34.4234
101.1821,34.4234
101.0864,34.4044
101.0053,34.3502
100.9511,34.2691
100.9321,34.1734
100.9321,33.6734
100.9511,33.5778
101.0053,33.4967
101.0864,33.4425
101.1821,33.4234
Z" /> 
<path style="fill:#D864FF; fill-opacity:0.4000; stroke:none;fill-rule:evenodd;"
d="M 102.1321,35.3235
102.2278,35.3425
102.3089,35.3967
102.3631,35.4778
102.3821,35.5735
102.3821,36.0735
102.3631,36.1691
102.3089,36.2502
102.2278,36.3044
102.1321,36.3235
101.1821,36.3235
101.0864,36.3044
101.0053,36.2502
100.9511,36.1691
100.9321,36.0735
100.9321,35.5735
100.9511,35.4778
101.0053,35.3967
101.0864,35.3425
101.1821,35.3235
Z" /> 
<path style="fill:#D864FF; fill-opacity:0.4000; stroke:none;fill-rule:evenodd;"
d="M 103.6819,17.7722
103.7776,17.7913
103.8587,17.8455
103.9129,17.9266
103.9319,18.0222
103.9319,18.8223
103.9129,18.9179
103.8587,18.9990
103.7776,19.0532
103.6819,19.0723
102.7819,19.0723
102.6862,19.0532
102.6051,18.9990
102.5509,18.9179
102.5319,18.8223
102.5319,18.0222
102.5509,17.9266
102.6051,17.8455
102.6862,17.7913
102.7819,17.7722
Z" /> 
<path style="fill:#D864FF; fill-opacity:0.4000; stroke:none;fill-rule:evenodd;"
d="M 103.6819,20.6722
103.7776,20.6913
103.8587,20.7455
103.9129,20.8266
103.9319,20.9222
103.9319,21.7222
103.9129,21.8179
103.8587,21.8990
103.7776,21.9532
103.6819,21.9722
102.7819,21.9722
102.6862,21.9532
102.6051,21.8990
102.5509,21.8179
102.5319,21.7222
102.5319,20.9222
102.5509,20.8266
102.6051,20.7455
102.6862,20.6913
102.7819,20.6722
Z" /> 
<path style="fill:#D864FF; fill-opacity:0.4000; stroke:none;fill-rule:evenodd;"
d="M 127.4529,26.5861
127.4377,26.6627
127.3943,26.7276
127.3294,26.7709
127.2529,26.7861
126.8529,26.7861
126.7764,26.7709
126.7115,26.7276
126.6681,26.6627
126.6529,26.5861
126.6529,26.0361
126.6681,25.9596
126.7115,25.8947
126.7764,25.8514
126.8529,25.8361
127.2529,25.8361
127.3294,25.8514
127.3943,25.8947
127.4377,25.9596
127.4529,26.0361
Z" /> 
<path style="fill:#D864FF; fill-opacity:0.4000; stroke:none;fill-rule:evenodd;"
d="M 125.8029,26.5861
125.7877,26.6627
125.7443,26.7276
125.6794,26.7709
125.6029,26.7861
125.2029,26.7861
125.1264,26.7709
125.0615,26.7276
125.0181,26.6627
125.0029,26.5861
125.0029,26.0361
125.0181,25.9596
125.0615,25.8947
125.1264,25.8514
125.2029,25.8361
125.6029,25.8361
125.6794,25.8514
125.7443,25.8947
125.7877,25.9596
125.8029,26.0361
Z" /> 
<path style="fill:#D864FF; fill-opacity:0.4000; stroke:none;fill-rule:evenodd;"
d="M 111.0983,29.9944
111.1940,30.0135
111.2751,30.0677
111.3293,30.1488
111.3483,30.2444
111.3483,30.7444
111.3293,30.8401
111.2751,30.9212
111.1940,30.9754
111.0983,30.9944
110.1483,30.9944
110.0526,30.9754
109.9715,30.9212
109.9173,30.8401
109.8983,30.7444
109.8983,30.2444
109.9173,30.1488
109.9715,30.0677
110.0526,30.0135
110.1483,29.9944
Z" /> 
<path style="fill:#D864FF; fill-opacity:0.4000; stroke:none;fill-rule:evenodd;"
d="M 111.0983,31.8944
111.1940,31.9135
111.2751,31.9677
111.3293,32.0488
111.3483,32.1444
111.3483,32.6444
111.3293,32.7401
111.2751,32.8212
111.1940,32.8754
111.0983,32.8944
110.1483,32.8944
110.0526,32.8754
109.9715,32.8212
109.9173,32.7401
109.8983,32.6444
109.8983,32.1444
109.9173,32.0488
109.9715,31.9677
110.0526,31.9135
110.1483,31.8944
Z" /> 
<path style="fill:#D864FF; fill-opacity:0.4000; stroke:none;fill-rule:evenodd;"
d="M 101.3337,19.4634
101.4294,19.4825
101.5105,19.5367
101.5647,19.6178
101.5837,19.7134
101.5837,20.2134
101.5647,20.3091
101.5105,20.3902
101.4294,20.4444
101.3337,20.4634
100.3837,20.4634
100.2880,20.4444
100.2069,20.3902
100.1527,20.3091
100.1337,20.2134
100.1337,19.7134
100.1527,19.6178
100.2069,19.5367
100.2880,19.4825
100.3837,19.4634
Z" /> 
<path style="fill:#D864FF; fill-opacity:0.4000; stroke:none;fill-rule:evenodd;"
d="M 101.3337,21.3635
101.4294,21.3825
101.5105,21.4367
101.5647,21.5178
101.5837,21.6135
101.5837,22.1135
101.5647,22.2091
101.5105,22.2902
101.4294,22.3444
101.3337,22.3635
100.3837,22.3635
100.2880,22.3444
100.2069,22.2902
100.1527,22.2091
100.1337,22.1135
100.1337,21.6135
100.1527,21.5178
100.2069,21.4367
100.2880,21.3825
100.3837,21.3635
Z" /> 
<path style="fill:#D864FF; fill-opacity:0.4000; stroke:none;fill-rule:evenodd;"
d="M 144.7618,32.4951
144.7618,30.7951
146.4618,30.7951
146.4618,32.4951
Z" /> 
</g>
<g style="fill:#D864FF; fill-opacity:0.4000; stroke:none;">
<circle cx="145.6118" cy="34.1852" r="0.8500" /> 
</g>
<g style="fill:#D864FF; fill-opacity:0.4000; stroke:none;">
<circle cx="145.6118" cy="36.7251" r="0.8500" /> 
</g>
<g style="fill:#D864FF; fill-opacity:0.4000; stroke:none;">
<circle cx="145.6118" cy="39.2651" r="0.8500" /> 
</g>
<g style="fill:#D864FF; fill-opacity:0.4000; stroke:none;">
<circle cx="145.6118" cy="41.8051" r="0.8500" /> 
</g>
<g style="fill:#D864FF; fill-opacity:0.4000; stroke:none;">
<circle cx="145.6118" cy="44.3451" r="0.8500" /> 
<path style="fill:#D864FF; fill-opacity:0.4000; stroke:none;fill-rule:evenodd;"
d="M 124.4431,46.9982
124.4241,47.0939
124.3699,47.1750
124.2888,47.2292
124.1931,47.2482
123.6931,47.2482
123.5974,47.2292
123.5163,47.1750
123.4621,47.0939
123.4431,46.9982
123.4431,46.0482
123.4621,45.9526
123.5163,45.8715
123.5974,45.8173
123.6931,45.7982
124.1931,45.7982
124.2888,45.8173
124.3699,45.8715
124.4241,45.9526
124.4431,46.0482
Z" /> 
<path style="fill:#D864FF; fill-opacity:0.4000; stroke:none;fill-rule:evenodd;"
d="M 122.5431,46.9982
122.5241,47.0939
122.4699,47.1750
122.3888,47.2292
122.2931,47.2482
121.7931,47.2482
121.6974,47.2292
121.6163,47.1750
121.5621,47.0939
121.5431,46.9982
121.5431,46.0482
121.5621,45.9526
121.6163,45.8715
121.6974,45.8173
121.7931,45.7982
122.2931,45.7982
122.3888,45.8173
122.4699,45.8715
122.5241,45.9526
122.5431,46.0482
Z" /> 
<path style="fill:#D864FF; fill-opacity:0.4000; stroke:none;fill-rule:evenodd;"
d="M 101.5802,55.9436
103.0802,55.9436
103.0802,56.9436
101.5802,56.9436
Z" /> 
<path style="fill:#D864FF; fill-opacity:0.4000; stroke:none;fill-rule:evenodd;"
d="M 101.5802,57.2436
103.0802,57.2436
103.0802,58.2436
101.5802,58.2436
Z" /> 
<path style="fill:#D864FF; fill-opacity:0.4000; stroke:none;fill-rule:evenodd;"
d="M 100.1509,33.4337
100.2466,33.4527
100.3277,33.5069
100.3819,33.5880
100.4009,33.6837
100.4009,34.1837
100.3819,34.2793
100.3277,34.3604
100.2466,34.4146
100.1509,34.4337
99.2009,34.4337
99.1052,34.4146
99.0241,34.3604
98.9699,34.2793
98.9509,34.1837
98.9509,33.6837
98.9699,33.5880
99.0241,33.5069
99.1052,33.4527
99.2009,33.4337
Z" /> 
<path style="fill:#D864FF; fill-opacity:0.4000; stroke:none;fill-rule:evenodd;"
d="M 100.1509,35.3336
100.2466,35.3527
100.3277,35.4069
100.3819,35.4880
100.4009,35.5836
100.4009,36.0836
100.3819,36.1793
100.3277,36.2604
100.2466,36.3146
100.1509,36.3336
99.2009,36.3336
99.1052,36.3146
99.0241,36.2604
98.9699,36.1793
98.9509,36.0836
98.9509,35.5836
98.9699,35.4880
99.0241,35.4069
99.1052,35.3527
99.2009,35.3336
Z" /> 
<path style="fill:#D864FF; fill-opacity:0.4000; stroke:none;fill-rule:evenodd;"
d="M 116.8694,52.2055
116.7737,52.1865
116.6926,52.1323
116.6384,52.0512
116.6194,51.9555
116.6194,49.9555
116.6384,49.8599
116.6926,49.7788
116.7737,49.7246
116.8694,49.7055
118.1694,49.7055
118.2651,49.7246
118.3462,49.7788
118.4004,49.8599
118.4194,49.9555
118.4194,51.9555
118.4004,52.0512
118.3462,52.1323
118.2651,52.1865
118.1694,52.2055
Z" /> 
<path style="fill:#D864FF; fill-opacity:0.4000; stroke:none;fill-rule:evenodd;"
d="M 116.8694,48.2055
116.7737,48.1865
116.6926,48.1323
116.6384,48.0512
116.6194,47.9555
116.6194,45.9555
116.6384,45.8599
116.6926,45.7788
116.7737,45.7246
116.8694,45.7055
118.1694,45.7055
118.2651,45.7246
118.3462,45.7788
118.4004,45.8599
118.4194,45.9555
118.4194,47.9555
118.4004,48.0512
118.3462,48.1323
118.2651,48.1865
118.1694,48.2055
Z" /> 
<path style="fill:#D864FF; fill-opacity:0.4000; stroke:none;fill-rule:evenodd;"
d="M 147.5081,51.1732
147.5024,51.2020
147.4861,51.2263
147.4618,51.2425
147.4331,51.2482
146.1331,51.2482
146.1044,51.2425
146.0801,51.2263
146.0638,51.2020
146.0581,51.1732
146.0581,51.0232
146.0638,50.9945
146.0801,50.9702
146.1044,50.9540
146.1331,50.9482
147.4331,50.9482
147.4618,50.9540
147.4861,50.9702
147.5024,50.9945
147.5081,51.0232
Z" /> 
<path style="fill:#D864FF; fill-opacity:0.4000; stroke:none;fill-rule:evenodd;"
d="M 147.5081,50.6732
147.5024,50.7020
147.4861,50.7263
147.4618,50.7425
147.4331,50.7482
146.1331,50.7482
146.1044,50.7425
146.0801,50.7263
146.0638,50.7020
146.0581,50.6732
146.0581,50.5232
146.0638,50.4945
146.0801,50.4702
146.1044,50.4540
146.1331,50.4482
147.4331,50.4482
147.4618,50.4540
147.4861,50.4702
147.5024,50.4945
147.5081,50.5232
Z" /> 
<path style="fill:#D864FF; fill-opacity:0.4000; stroke:none;fill-rule:evenodd;"
d="M 147.5081,50.1732
147.5024,50.2020
147.4861,50.2263
147.4618,50.2425
147.4331,50.2482
146.1331,50.2482
146.1044,50.2425
146.0801,50.2263
146.0638,50.2020
146.0581,50.1732
146.0581,50.0232
146.0638,49.9945
146.0801,49.9702
146.1044,49.9540
146.1331,49.9482
147.4331,49.9482
147.4618,49.9540
147.4861,49.9702
147.5024,49.9945
147.5081,50.0232
Z" /> 
<path style="fill:#D864FF; fill-opacity:0.4000; stroke:none;fill-rule:evenodd;"
d="M 147.5081,49.6732
147.5024,49.7020
147.4861,49.7263
147.4618,49.7425
147.4331,49.7482
146.1331,49.7482
146.1044,49.7425
146.0801,49.7263
146.0638,49.7020
146.0581,49.6732
146.0581,49.5232
146.0638,49.4945
146.0801,49.4702
146.1044,49.4540
146.1331,49.4482
147.4331,49.4482
147.4618,49.4540
147.4861,49.4702
147.5024,49.4945
147.5081,49.5232
Z" /> 
<path style="fill:#D864FF; fill-opacity:0.4000; stroke:none;fill-rule:evenodd;"
d="M 147.5081,49.1732
147.5024,49.2020
147.4861,49.2263
147.4618,49.2425
147.4331,49.2482
146.1331,49.2482
146.1044,49.2425
146.0801,49.2263
146.0638,49.2020
146.0581,49.1732
146.0581,49.0232
146.0638,48.9945
146.0801,48.9702
146.1044,48.9540
146.1331,48.9482
147.4331,48.9482
147.4618,48.9540
147.4861,48.9702
147.5024,48.9945
147.5081,49.0232
Z" /> 
<path style="fill:#D864FF; fill-opacity:0.4000; stroke:none;fill-rule:evenodd;"
d="M 143.1081,49.1732
143.1024,49.2020
143.0861,49.2263
143.0618,49.2425
143.0331,49.2482
141.7331,49.2482
141.7044,49.2425
141.6801,49.2263
141.6638,49.2020
141.6581,49.1732
141.6581,49.0232
141.6638,48.9945
141.6801,48.9702
141.7044,48.9540
141.7331,48.9482
143.0331,48.9482
143.0618,48.9540
143.0861,48.9702
143.1024,48.9945
143.1081,49.0232
Z" /> 
<path style="fill:#D864FF; fill-opacity:0.4000; stroke:none;fill-rule:evenodd;"
d="M 143.1081,49.6732
143.1024,49.7020
143.0861,49.7263
143.0618,49.7425
143.0331,49.7482
141.7331,49.7482
141.7044,49.7425
141.6801,49.7263
141.6638,49.7020
141.6581,49.6732
141.6581,49.5232
141.6638,49.4945
141.6801,49.4702
141.7044,49.4540
141.7331,49.4482
143.0331,49.4482
143.0618,49.4540
143.0861,49.4702
143.1024,49.4945
143.1081,49.5232
Z" /> 
<path style="fill:#D864FF; fill-opacity:0.4000; stroke:none;fill-rule:evenodd;"
d="M 143.1081,50.1732
143.1024,50.2020
143.0861,50.2263
143.0618,50.2425
143.0331,50.2482
141.7331,50.2482
141.7044,50.2425
141.6801,50.2263
141.6638,50.2020
141.6581,50.1732
141.6581,50.0232
141.6638,49.9945
141.6801,49.9702
141.7044,49.9540
141.7331,49.9482
143.0331,49.9482
143.0618,49.9540
143.0861,49.9702
143.1024,49.9945
143.1081,50.0232
Z" /> 
<path style="fill:#D864FF; fill-opacity:0.4000; stroke:none;fill-rule:evenodd;"
d="M 143.1081,50.6732
143.1024,50.7020
143.0861,50.7263
143.0618,50.7425
143.0331,50.7482
141.7331,50.7482
141.7044,50.7425
141.6801,50.7263
141.6638,50.7020
141.6581,50.6732
141.6581,50.5232
141.6638,50.4945
141.6801,50.4702
141.7044,50.4540
141.7331,50.4482
143.0331,50.4482
143.0618,50.4540
143.0861,50.4702
143.1024,50.4945
143.1081,50.5232
Z" /> 
<path style="fill:#D864FF; fill-opacity:0.4000; stroke:none;fill-rule:evenodd;"
d="M 143.1081,51.1732
143.1024,51.2020
143.0861,51.2263
143.0618,51.2425
143.0331,51.2482
141.7331,51.2482
141.7044,51.2425
141.6801,51.2263
141.6638,51.2020
141.6581,51.1732
141.6581,51.0232
141.6638,50.9945
141.6801,50.9702
141.7044,50.9540
141.7331,50.9482
143.0331,50.9482
143.0618,50.9540
143.0861,50.9702
143.1024,50.9945
143.1081,51.0232
Z" /> 
</g>
<g style="fill:#D864FF; fill-opacity:0.4000; stroke:none;">
<circle cx="146.3583" cy="56.5597" r="1.3000" /> 
</g>
<g style="fill:#D864FF; fill-opacity:0.4000; stroke:none;">
<circle cx="146.3583" cy="56.5597" r="1.9000" /> 
<path style="fill:#D864FF; fill-opacity:0.4000; stroke:none;fill-rule:evenodd;"
d="M 98.9511,18.0251
98.9701,17.9294
99.0243,17.8483
99.1054,17.7941
99.2011,17.7751
99.7261,17.7751
99.8218,17.7941
99.9029,17.8483
99.9571,17.9294
99.9761,18.0251
99.9761,18.9250
99.9571,19.0207
99.9029,19.1018
99.8218,19.1560
99.7261,19.1750
99.2011,19.1750
99.1054,19.1560
99.0243,19.1018
98.9701,19.0207
98.9511,18.9250
Z" /> 
<path style="fill:#D864FF; fill-opacity:0.4000; stroke:none;fill-rule:evenodd;"
d="M 100.7761,18.0251
100.7951,17.9294
100.8493,17.8483
100.9304,17.7941
101.0261,17.7751
101.5511,17.7751
101.6468,17.7941
101.7279,17.8483
101.7821,17.9294
101.8011,18.0251
101.8011,18.9250
101.7821,19.0207
101.7279,19.1018
101.6468,19.1560
101.5511,19.1750
101.0261,19.1750
100.9304,19.1560
100.8493,19.1018
100.7951,19.0207
100.7761,18.9250
Z" /> 
<path style="fill:#D864FF; fill-opacity:0.4000; stroke:none;fill-rule:evenodd;"
d="M 106.5332,55.9436
108.0332,55.9436
108.0332,56.9436
106.5332,56.9436
Z" /> 
<path style="fill:#D864FF; fill-opacity:0.4000; stroke:none;fill-rule:evenodd;"
d="M 106.5332,57.2436
108.0332,57.2436
108.0332,58.2436
106.5332,58.2436
Z" /> 
<path style="fill:#D864FF; fill-opacity:0.4000; stroke:none;fill-rule:evenodd;"
d="M 103.9255,32.6745
103.8719,32.6638
103.8265,32.6334
103.7961,32.5880
103.7855,32.5344
103.7855,32.2544
103.7961,32.2009
103.8265,32.1555
103.8719,32.1251
103.9255,32.1144
104.2655,32.1144
104.3191,32.1251
104.3645,32.1555
104.3948,32.2009
104.4055,32.2544
104.4055,32.5344
104.3948,32.5880
104.3645,32.6334
104.3191,32.6638
104.2655,32.6745
Z" /> 
<path style="fill:#D864FF; fill-opacity:0.4000; stroke:none;fill-rule:evenodd;"
d="M 103.9255,31.7144
103.8719,31.7038
103.8265,31.6734
103.7961,31.6280
103.7855,31.5744
103.7855,31.2944
103.7961,31.2409
103.8265,31.1955
103.8719,31.1651
103.9255,31.1544
104.2655,31.1544
104.3191,31.1651
104.3645,31.1955
104.3948,31.2409
104.4055,31.2944
104.4055,31.5744
104.3948,31.6280
104.3645,31.6734
104.3191,31.7038
104.2655,31.7144
Z" /> 
<path style="fill:#D864FF; fill-opacity:0.4000; stroke:none;fill-rule:evenodd;"
d="M 116.8426,38.5739
116.7469,38.5548
116.6658,38.5006
116.6116,38.4195
116.5926,38.3239
116.5926,36.3239
116.6116,36.2282
116.6658,36.1471
116.7469,36.0929
116.8426,36.0739
118.1426,36.0739
118.2383,36.0929
118.3194,36.1471
118.3736,36.2282
118.3926,36.3239
118.3926,38.3239
118.3736,38.4195
118.3194,38.5006
118.2383,38.5548
118.1426,38.5739
Z" /> 
<path style="fill:#D864FF; fill-opacity:0.4000; stroke:none;fill-rule:evenodd;"
d="M 116.8426,34.5739
116.7469,34.5548
116.6658,34.5006
116.6116,34.4195
116.5926,34.3239
116.5926,32.3239
116.6116,32.2282
116.6658,32.1471
116.7469,32.0929
116.8426,32.0739
118.1426,32.0739
118.2383,32.0929
118.3194,32.1471
118.3736,32.2282
118.3926,32.3239
118.3926,34.3239
118.3736,34.4195
118.3194,34.5006
118.2383,34.5548
118.1426,34.5739
Z" /> 
<path style="fill:#D864FF; fill-opacity:0.4000; stroke:none;fill-rule:evenodd;"
d="M 102.8075,34.4446
102.8178,34.3930
102.8470,34.3492
102.8908,34.3199
102.9425,34.3096
103.2125,34.3096
103.2642,34.3199
103.3079,34.3492
103.3372,34.3930
103.3475,34.4446
103.3475,34.8147
103.3372,34.8663
103.3079,34.9101
103.2642,34.9394
103.2125,34.9496
102.9425,34.9496
102.8908,34.9394
102.8470,34.9101
102.8178,34.8663
102.8075,34.8147
Z" /> 
<path style="fill:#D864FF; fill-opacity:0.4000; stroke:none;fill-rule:evenodd;"
d="M 103.8275,34.4446
103.8378,34.3930
103.8670,34.3492
103.9108,34.3199
103.9625,34.3096
104.2325,34.3096
104.2842,34.3199
104.3279,34.3492
104.3572,34.3930
104.3675,34.4446
104.3675,34.8147
104.3572,34.8663
104.3279,34.9101
104.2842,34.9394
104.2325,34.9496
103.9625,34.9496
103.9108,34.9394
103.8670,34.9101
103.8378,34.8663
103.8275,34.8147
Z" /> 
<path style="fill:#D864FF; fill-opacity:0.4000; stroke:none;fill-rule:evenodd;"
d="M 128.0082,37.9716
128.0082,37.5144
129.3290,37.5144
129.3290,37.9716
Z" /> 
<path style="fill:#D864FF; fill-opacity:0.4000; stroke:none;fill-rule:evenodd;"
d="M 128.0082,39.2415
128.0082,38.7843
129.3290,38.7843
129.3290,39.2415
Z" /> 
<path style="fill:#D864FF; fill-opacity:0.4000; stroke:none;fill-rule:evenodd;"
d="M 128.0082,40.5115
128.0082,40.0543
129.3290,40.0543
129.3290,40.5115
Z" /> 
<path style="fill:#D864FF; fill-opacity:0.4000; stroke:none;fill-rule:evenodd;"
d="M 128.0082,41.7815
128.0082,41.3243
129.3290,41.3243
129.3290,41.7815
Z" /> 
<path style="fill:#D864FF; fill-opacity:0.4000; stroke:none;fill-rule:evenodd;"
d="M 130.5482,41.8196
130.5482,40.8479
134.1380,40.8479
134.1380,41.8196
Z" /> 
<path style="fill:#D864FF; fill-opacity:0.4000; stroke:none;fill-rule:evenodd;"
d="M 133.6470,41.7815
133.6470,41.3243
134.9678,41.3243
134.9678,41.7815
Z" /> 
<path style="fill:#D864FF; fill-opacity:0.4000; stroke:none;fill-rule:evenodd;"
d="M 130.5482,40.8479
130.5482,39.6979
134.1380,39.6979
134.1380,40.8479
Z" /> 
<path style="fill:#D864FF; fill-opacity:0.4000; stroke:none;fill-rule:evenodd;"
d="M 133.6470,40.5115
133.6470,40.0543
134.9678,40.0543
134.9678,40.5115
Z" /> 
<path style="fill:#D864FF; fill-opacity:0.4000; stroke:none;fill-rule:evenodd;"
d="M 130.5482,39.6979
130.5482,38.3980
134.1380,38.3980
134.1380,39.6979
Z" /> 
<path style="fill:#D864FF; fill-opacity:0.4000; stroke:none;fill-rule:evenodd;"
d="M 133.6470,39.2415
133.6470,38.7843
134.9678,38.7843
134.9678,39.2415
Z" /> 
<path style="fill:#D864FF; fill-opacity:0.4000; stroke:none;fill-rule:evenodd;"
d="M 130.5482,38.3980
130.5482,37.4763
134.1380,37.4763
134.1380,38.3980
Z" /> 
<path style="fill:#D864FF; fill-opacity:0.4000; stroke:none;fill-rule:evenodd;"
d="M 133.6470,37.9716
133.6470,37.5144
134.9678,37.5144
134.9678,37.9716
Z" /> 
<path style="fill:#D864FF; fill-opacity:0.4000; stroke:none;fill-rule:evenodd;"
d="M 128.0567,24.2893
128.0567,23.8321
129.3775,23.8321
129.3775,24.2893
Z" /> 
<path style="fill:#D864FF; fill-opacity:0.4000; stroke:none;fill-rule:evenodd;"
d="M 128.0567,25.5593
128.0567,25.1021
129.3775,25.1021
129.3775,25.5593
Z" /> 
<path style="fill:#D864FF; fill-opacity:0.4000; stroke:none;fill-rule:evenodd;"
d="M 128.0567,26.8293
128.0567,26.3721
129.3775,26.3721
129.3775,26.8293
Z" /> 
<path style="fill:#D864FF; fill-opacity:0.4000; stroke:none;fill-rule:evenodd;"
d="M 128.0567,28.0993
128.0567,27.6421
129.3775,27.6421
129.3775,28.0993
Z" /> 
<path style="fill:#D864FF; fill-opacity:0.4000; stroke:none;fill-rule:evenodd;"
d="M 130.5967,28.1374
130.5967,27.2371
134.1781,27.2371
134.1781,28.1374
Z" /> 
<path style="fill:#D864FF; fill-opacity:0.4000; stroke:none;fill-rule:evenodd;"
d="M 133.6955,28.0993
133.6955,27.6421
135.0163,27.6421
135.0163,28.0993
Z" /> 
<path style="fill:#D864FF; fill-opacity:0.4000; stroke:none;fill-rule:evenodd;"
d="M 130.5967,27.2371
130.5967,26.0158
134.1781,26.0158
134.1781,27.2371
Z" /> 
<path style="fill:#D864FF; fill-opacity:0.4000; stroke:none;fill-rule:evenodd;"
d="M 133.6955,26.8293
133.6955,26.3721
135.0163,26.3721
135.0163,26.8293
Z" /> 
<path style="fill:#D864FF; fill-opacity:0.4000; stroke:none;fill-rule:evenodd;"
d="M 130.5967,26.0158
130.5967,24.7157
134.1865,24.7157
134.1865,26.0158
Z" /> 
<path style="fill:#D864FF; fill-opacity:0.4000; stroke:none;fill-rule:evenodd;"
d="M 133.6955,25.5593
133.6955,25.1021
135.0163,25.1021
135.0163,25.5593
Z" /> 
<path style="fill:#D864FF; fill-opacity:0.4000; stroke:none;fill-rule:evenodd;"
d="M 130.5967,24.7157
130.5967,23.7940
134.1865,23.7940
134.1865,24.7157
Z" /> 
<path style="fill:#D864FF; fill-opacity:0.4000; stroke:none;fill-rule:evenodd;"
d="M 133.6955,24.2893
133.6955,23.8321
135.0163,23.8321
135.0163,24.2893
Z" /> 
<path style="fill:#D864FF; fill-opacity:0.4000; stroke:none;fill-rule:evenodd;"
d="M 128.0567,18.2085
128.0567,17.7513
129.3775,17.7513
129.3775,18.2085
Z" /> 
<path style="fill:#D864FF; fill-opacity:0.4000; stroke:none;fill-rule:evenodd;"
d="M 128.0567,19.4785
128.0567,19.0213
129.3775,19.0213
129.3775,19.4785
Z" /> 
<path style="fill:#D864FF; fill-opacity:0.4000; stroke:none;fill-rule:evenodd;"
d="M 128.0567,20.7485
128.0567,20.2913
129.3775,20.2913
129.3775,20.7485
Z" /> 
<path style="fill:#D864FF; fill-opacity:0.4000; stroke:none;fill-rule:evenodd;"
d="M 128.0567,22.0185
128.0567,21.5613
129.3775,21.5613
129.3775,22.0185
Z" /> 
<path style="fill:#D864FF; fill-opacity:0.4000; stroke:none;fill-rule:evenodd;"
d="M 130.5967,22.0566
130.5967,21.0849
134.1890,21.0849
134.1890,22.0566
Z" /> 
<path style="fill:#D864FF; fill-opacity:0.4000; stroke:none;fill-rule:evenodd;"
d="M 133.6955,22.0185
133.6955,21.5613
135.0163,21.5613
135.0163,22.0185
Z" /> 
<path style="fill:#D864FF; fill-opacity:0.4000; stroke:none;fill-rule:evenodd;"
d="M 130.5904,21.1208
130.5904,19.9849
134.1865,19.9849
134.1865,21.1208
Z" /> 
<path style="fill:#D864FF; fill-opacity:0.4000; stroke:none;fill-rule:evenodd;"
d="M 133.6955,20.7485
133.6955,20.2913
135.0163,20.2913
135.0163,20.7485
Z" /> 
<path style="fill:#D864FF; fill-opacity:0.4000; stroke:none;fill-rule:evenodd;"
d="M 130.5904,19.9849
130.5904,18.6491
134.1865,18.6491
134.1865,19.9849
Z" /> 
<path style="fill:#D864FF; fill-opacity:0.4000; stroke:none;fill-rule:evenodd;"
d="M 133.6955,19.4785
133.6955,19.0213
135.0163,19.0213
135.0163,19.4785
Z" /> 
<path style="fill:#D864FF; fill-opacity:0.4000; stroke:none;fill-rule:evenodd;"
d="M 130.5904,18.6708
130.5904,17.6991
134.1827,17.6991
134.1827,18.6708
Z" /> 
<path style="fill:#D864FF; fill-opacity:0.4000; stroke:none;fill-rule:evenodd;"
d="M 133.6955,18.2085
133.6955,17.7513
135.0163,17.7513
135.0163,18.2085
Z" /> 
<path style="fill:#D864FF; fill-opacity:0.4000; stroke:none;fill-rule:evenodd;"
d="M 99.5301,20.9408
99.5837,20.9515
99.6291,20.9819
99.6594,21.0273
99.6701,21.0808
99.6701,21.3608
99.6594,21.4144
99.6291,21.4598
99.5837,21.4902
99.5301,21.5008
99.1901,21.5008
99.1365,21.4902
99.0911,21.4598
99.0607,21.4144
99.0501,21.3608
99.0501,21.0808
99.0607,21.0273
99.0911,20.9819
99.1365,20.9515
99.1901,20.9408
Z" /> 
<path style="fill:#D864FF; fill-opacity:0.4000; stroke:none;fill-rule:evenodd;"
d="M 99.5301,21.9008
99.5837,21.9115
99.6291,21.9419
99.6594,21.9873
99.6701,22.0408
99.6701,22.3209
99.6594,22.3744
99.6291,22.4198
99.5837,22.4502
99.5301,22.4609
99.1901,22.4609
99.1365,22.4502
99.0911,22.4198
99.0607,22.3744
99.0501,22.3209
99.0501,22.0408
99.0607,21.9873
99.0911,21.9419
99.1365,21.9115
99.1901,21.9008
Z" /> 
</g>
<g style="fill:#D864FF; fill-opacity:0.4000; stroke:none;">
<circle cx="146.3583" cy="16.8397" r="1.3000" /> 
</g>
<g style="fill:#D864FF; fill-opacity:0.4000; stroke:none;">
<circle cx="146.3583" cy="16.8397" r="1.7500" /> 
<path style="fill:#D864FF; fill-opacity:0.4000; stroke:none;fill-rule:evenodd;"
d="M 128.0096,45.4437
128.0096,44.9865
129.3304,44.9865
129.3304,45.4437
Z" /> 
<path style="fill:#D864FF; fill-opacity:0.4000; stroke:none;fill-rule:evenodd;"
d="M 128.0096,46.7137
128.0096,46.2565
129.3304,46.2565
129.3304,46.7137
Z" /> 
<path style="fill:#D864FF; fill-opacity:0.4000; stroke:none;fill-rule:evenodd;"
d="M 128.0096,47.9837
128.0096,47.5265
129.3304,47.5265
129.3304,47.9837
Z" /> 
<path style="fill:#D864FF; fill-opacity:0.4000; stroke:none;fill-rule:evenodd;"
d="M 128.0096,49.2537
128.0096,48.7965
129.3304,48.7965
129.3304,49.2537
Z" /> 
<path style="fill:#D864FF; fill-opacity:0.4000; stroke:none;fill-rule:evenodd;"
d="M 130.5496,49.2918
130.5496,48.3701
134.1310,48.3701
134.1310,49.2918
Z" /> 
<path style="fill:#D864FF; fill-opacity:0.4000; stroke:none;fill-rule:evenodd;"
d="M 133.6484,49.2537
133.6484,48.7965
134.9692,48.7965
134.9692,49.2537
Z" /> 
<path style="fill:#D864FF; fill-opacity:0.4000; stroke:none;fill-rule:evenodd;"
d="M 130.5496,48.3701
130.5496,47.0701
134.1310,47.0701
134.1310,48.3701
Z" /> 
<path style="fill:#D864FF; fill-opacity:0.4000; stroke:none;fill-rule:evenodd;"
d="M 133.6484,47.9837
133.6484,47.5265
134.9692,47.5265
134.9692,47.9837
Z" /> 
<path style="fill:#D864FF; fill-opacity:0.4000; stroke:none;fill-rule:evenodd;"
d="M 130.5496,47.0701
130.5496,45.8201
134.1394,45.8201
134.1394,47.0701
Z" /> 
<path style="fill:#D864FF; fill-opacity:0.4000; stroke:none;fill-rule:evenodd;"
d="M 133.6484,46.7137
133.6484,46.2565
134.9692,46.2565
134.9692,46.7137
Z" /> 
<path style="fill:#D864FF; fill-opacity:0.4000; stroke:none;fill-rule:evenodd;"
d="M 130.5496,45.8201
130.5496,44.9484
134.1394,44.9484
134.1394,45.8201
Z" /> 
<path style="fill:#D864FF; fill-opacity:0.4000; stroke:none;fill-rule:evenodd;"
d="M 133.6484,45.4437
133.6484,44.9865
134.9692,44.9865
134.9692,45.4437
Z" /> 
<path style="fill:#D864FF; fill-opacity:0.4000; stroke:none;fill-rule:evenodd;"
d="M 125.5619,39.0296
125.4662,39.0105
125.3851,38.9563
125.3309,38.8752
125.3119,38.7796
125.3119,38.1795
125.3309,38.0839
125.3851,38.0028
125.4662,37.9486
125.5619,37.9295
126.1619,37.9295
126.2576,37.9486
126.3387,38.0028
126.3929,38.0839
126.4119,38.1795
126.4119,38.7796
126.3929,38.8752
126.3387,38.9563
126.2576,39.0105
126.1619,39.0296
Z" /> 
<path style="fill:#D864FF; fill-opacity:0.4000; stroke:none;fill-rule:evenodd;"
d="M 125.5619,36.2295
125.4662,36.2105
125.3851,36.1563
125.3309,36.0752
125.3119,35.9795
125.3119,35.3796
125.3309,35.2839
125.3851,35.2028
125.4662,35.1486
125.5619,35.1296
126.1619,35.1296
126.2576,35.1486
126.3387,35.2028
126.3929,35.2839
126.4119,35.3796
126.4119,35.9795
126.3929,36.0752
126.3387,36.1563
126.2576,36.2105
126.1619,36.2295
Z" /> 
<path style="fill:#D864FF; fill-opacity:0.4000; stroke:none;fill-rule:evenodd;"
d="M 139.2607,48.8283
139.3564,48.8474
139.4375,48.9016
139.4917,48.9827
139.5107,49.0783
139.5107,49.8033
139.4917,49.8990
139.4375,49.9801
139.3564,50.0343
139.2607,50.0533
136.4107,50.0533
136.3150,50.0343
136.2339,49.9801
136.1797,49.8990
136.1607,49.8033
136.1607,49.0783
136.1797,48.9827
136.2339,48.9016
136.3150,48.8474
136.4107,48.8283
Z" /> 
<path style="fill:#D864FF; fill-opacity:0.4000; stroke:none;fill-rule:evenodd;"
d="M 139.2607,54.7533
139.3564,54.7724
139.4375,54.8266
139.4917,54.9077
139.5107,55.0033
139.5107,55.7283
139.4917,55.8240
139.4375,55.9051
139.3564,55.9593
139.2607,55.9783
136.4107,55.9783
136.3150,55.9593
136.2339,55.9051
136.1797,55.8240
136.1607,55.7283
136.1607,55.0033
136.1797,54.9077
136.2339,54.8266
136.3150,54.7724
136.4107,54.7533
Z" /> 
<path style="fill:#D864FF; fill-opacity:0.4000; stroke:none;fill-rule:evenodd;"
d="M 105.3710,57.8990
105.3193,57.8888
105.2755,57.8595
105.2463,57.8157
105.2360,57.7640
105.2360,57.4940
105.2463,57.4424
105.2755,57.3986
105.3193,57.3693
105.3710,57.3590
105.7410,57.3590
105.7927,57.3693
105.8364,57.3986
105.8657,57.4424
105.8760,57.4940
105.8760,57.7640
105.8657,57.8157
105.8364,57.8595
105.7927,57.8888
105.7410,57.8990
Z" /> 
<path style="fill:#D864FF; fill-opacity:0.4000; stroke:none;fill-rule:evenodd;"
d="M 105.3710,56.8790
105.3193,56.8688
105.2755,56.8395
105.2463,56.7957
105.2360,56.7440
105.2360,56.4740
105.2463,56.4224
105.2755,56.3786
105.3193,56.3493
105.3710,56.3391
105.7410,56.3391
105.7927,56.3493
105.8364,56.3786
105.8657,56.4224
105.8760,56.4740
105.8760,56.7440
105.8657,56.7957
105.8364,56.8395
105.7927,56.8688
105.7410,56.8790
Z" /> 
<path style="fill:#D864FF; fill-opacity:0.4000; stroke:none;fill-rule:evenodd;"
d="M 93.1109,18.5124
93.1109,16.8124
94.8109,16.8124
94.8109,18.5124
Z" /> 
</g>
<g style="fill:#D864FF; fill-opacity:0.4000; stroke:none;">
<circle cx="93.9609" cy="20.2024" r="0.8500" /> 
</g>
<g style="fill:#D864FF; fill-opacity:0.4000; stroke:none;">
<circle cx="93.9609" cy="22.7424" r="0.8500" /> 
</g>
<g style="fill:#D864FF; fill-opacity:0.4000; stroke:none;">
<circle cx="93.9609" cy="25.2824" r="0.8500" /> 
</g>
<g style="fill:#D864FF; fill-opacity:0.4000; stroke:none;">
<circle cx="93.9609" cy="27.8224" r="0.8500" /> 
</g>
<g style="fill:#D864FF; fill-opacity:0.4000; stroke:none;">
<circle cx="93.9609" cy="30.3624" r="0.8500" /> 
</g>
<g style="fill:#D864FF; fill-opacity:0.4000; stroke:none;">
<circle cx="93.9609" cy="32.9025" r="0.8500" /> 
</g>
<g style="fill:#D864FF; fill-opacity:0.4000; stroke:none;">
<circle cx="93.9609" cy="35.4425" r="0.8500" /> 
</g>
<g style="fill:#D864FF; fill-opacity:0.4000; stroke:none;">
<circle cx="93.9609" cy="37.9825" r="0.8500" /> 
</g>
<g style="fill:#D864FF; fill-opacity:0.4000; stroke:none;">
<circle cx="93.9609" cy="40.5224" r="0.8500" /> 
</g>
<g style="fill:#D864FF; fill-opacity:0.4000; stroke:none;">
<circle cx="93.9609" cy="43.0624" r="0.8500" /> 
</g>
<g style="fill:#D864FF; fill-opacity:0.4000; stroke:none;">
<circle cx="93.9609" cy="45.6024" r="0.8500" /> 
</g>
<g style="fill:#D864FF; fill-opacity:0.4000; stroke:none;">
<circle cx="93.9609" cy="48.1424" r="0.8500" /> 
</g>
<g style="fill:#D864FF; fill-opacity:0.4000; stroke:none;">
<circle cx="93.9609" cy="50.6824" r="0.8500" /> 
</g>
<g style="fill:#D864FF; fill-opacity:0.4000; stroke:none;">
<circle cx="93.9609" cy="53.2224" r="0.8500" /> 
</g>
<g style="fill:#D864FF; fill-opacity:0.4000; stroke:none;">
<circle cx="93.9609" cy="55.7624" r="0.8500" /> 
<path style="fill:#D864FF; fill-opacity:0.4000; stroke:none;fill-rule:evenodd;"
d="M 124.0575,48.7374
124.1149,48.7489
124.1636,48.7814
124.1961,48.8300
124.2075,48.8874
124.2075,50.5374
124.1961,50.5949
124.1636,50.6435
124.1149,50.6760
124.0575,50.6874
123.7575,50.6874
123.7001,50.6760
123.6514,50.6435
123.6189,50.5949
123.6075,50.5374
123.6075,48.8874
123.6189,48.8300
123.6514,48.7814
123.7001,48.7489
123.7575,48.7374
Z" /> 
<path style="fill:#D864FF; fill-opacity:0.4000; stroke:none;fill-rule:evenodd;"
d="M 122.7875,48.7374
122.8449,48.7489
122.8936,48.7814
122.9261,48.8300
122.9375,48.8874
122.9375,50.5374
122.9261,50.5949
122.8936,50.6435
122.8449,50.6760
122.7875,50.6874
122.4875,50.6874
122.4301,50.6760
122.3814,50.6435
122.3489,50.5949
122.3375,50.5374
122.3375,48.8874
122.3489,48.8300
122.3814,48.7814
122.4301,48.7489
122.4875,48.7374
Z" /> 
<path style="fill:#D864FF; fill-opacity:0.4000; stroke:none;fill-rule:evenodd;"
d="M 121.5175,48.7374
121.5749,48.7489
121.6236,48.7814
121.6561,48.8300
121.6675,48.8874
121.6675,50.5374
121.6561,50.5949
121.6236,50.6435
121.5749,50.6760
121.5175,50.6874
121.2175,50.6874
121.1601,50.6760
121.1114,50.6435
121.0789,50.5949
121.0675,50.5374
121.0675,48.8874
121.0789,48.8300
121.1114,48.7814
121.1601,48.7489
121.2175,48.7374
Z" /> 
<path style="fill:#D864FF; fill-opacity:0.4000; stroke:none;fill-rule:evenodd;"
d="M 120.2475,48.7374
120.3049,48.7489
120.3536,48.7814
120.3861,48.8300
120.3975,48.8874
120.3975,50.5374
120.3861,50.5949
120.3536,50.6435
120.3049,50.6760
120.2475,50.6874
119.9475,50.6874
119.8901,50.6760
119.8414,50.6435
119.8089,50.5949
119.7975,50.5374
119.7975,48.8874
119.8089,48.8300
119.8414,48.7814
119.8901,48.7489
119.9475,48.7374
Z" /> 
<path style="fill:#D864FF; fill-opacity:0.4000; stroke:none;fill-rule:evenodd;"
d="M 120.2475,53.6874
120.3049,53.6989
120.3536,53.7314
120.3861,53.7800
120.3975,53.8374
120.3975,55.4874
120.3861,55.5449
120.3536,55.5935
120.3049,55.6260
120.2475,55.6374
119.9475,55.6374
119.8901,55.6260
119.8414,55.5935
119.8089,55.5449
119.7975,55.4874
119.7975,53.8374
119.8089,53.7800
119.8414,53.7314
119.8901,53.6989
119.9475,53.6874
Z" /> 
<path style="fill:#D864FF; fill-opacity:0.4000; stroke:none;fill-rule:evenodd;"
d="M 121.5175,53.6874
121.5749,53.6989
121.6236,53.7314
121.6561,53.7800
121.6675,53.8374
121.6675,55.4874
121.6561,55.5449
121.6236,55.5935
121.5749,55.6260
121.5175,55.6374
121.2175,55.6374
121.1601,55.6260
121.1114,55.5935
121.0789,55.5449
121.0675,55.4874
121.0675,53.8374
121.0789,53.7800
121.1114,53.7314
121.1601,53.6989
121.2175,53.6874
Z" /> 
<path style="fill:#D864FF; fill-opacity:0.4000; stroke:none;fill-rule:evenodd;"
d="M 122.7875,53.6874
122.8449,53.6989
122.8936,53.7314
122.9261,53.7800
122.9375,53.8374
122.9375,55.4874
122.9261,55.5449
122.8936,55.5935
122.8449,55.6260
122.7875,55.6374
122.4875,55.6374
122.4301,55.6260
122.3814,55.5935
122.3489,55.5449
122.3375,55.4874
122.3375,53.8374
122.3489,53.7800
122.3814,53.7314
122.4301,53.6989
122.4875,53.6874
Z" /> 
<path style="fill:#D864FF; fill-opacity:0.4000; stroke:none;fill-rule:evenodd;"
d="M 124.0575,53.6874
124.1149,53.6989
124.1636,53.7314
124.1961,53.7800
124.2075,53.8374
124.2075,55.4874
124.1961,55.5449
124.1636,55.5935
124.1149,55.6260
124.0575,55.6374
123.7575,55.6374
123.7001,55.6260
123.6514,55.5935
123.6189,55.5449
123.6075,55.4874
123.6075,53.8374
123.6189,53.7800
123.6514,53.7314
123.7001,53.6989
123.7575,53.6874
Z" /> 
<path style="fill:#D864FF; fill-opacity:0.4000; stroke:none;fill-rule:evenodd;"
d="M 104.1059,58.1662
104.0222,58.1496
103.9513,58.1022
103.9038,58.0312
103.8872,57.9475
103.8872,57.5100
103.9038,57.4263
103.9513,57.3553
104.0222,57.3079
104.1059,57.2912
104.6184,57.2912
104.7022,57.3079
104.7731,57.3553
104.8205,57.4263
104.8372,57.5100
104.8372,57.9475
104.8205,58.0312
104.7731,58.1022
104.7022,58.1496
104.6184,58.1662
Z" /> 
<path style="fill:#D864FF; fill-opacity:0.4000; stroke:none;fill-rule:evenodd;"
d="M 104.1059,56.5912
104.0222,56.5746
103.9513,56.5272
103.9038,56.4562
103.8872,56.3725
103.8872,55.9350
103.9038,55.8513
103.9513,55.7803
104.0222,55.7329
104.1059,55.7162
104.6184,55.7162
104.7022,55.7329
104.7731,55.7803
104.8205,55.8513
104.8372,55.9350
104.8372,56.3725
104.8205,56.4562
104.7731,56.5272
104.7022,56.5746
104.6184,56.5912
Z" /> 
<path style="fill:#D864FF; fill-opacity:0.4000; stroke:none;fill-rule:evenodd;"
d="M 127.4651,28.0847
127.4499,28.1613
127.4065,28.2262
127.3416,28.2695
127.2651,28.2847
126.8651,28.2847
126.7886,28.2695
126.7237,28.2262
126.6803,28.1613
126.6651,28.0847
126.6651,27.5347
126.6803,27.4582
126.7237,27.3933
126.7886,27.3500
126.8651,27.3347
127.2651,27.3347
127.3416,27.3500
127.4065,27.3933
127.4499,27.4582
127.4651,27.5347
Z" /> 
<path style="fill:#D864FF; fill-opacity:0.4000; stroke:none;fill-rule:evenodd;"
d="M 125.8151,28.0847
125.7999,28.1613
125.7565,28.2262
125.6916,28.2695
125.6151,28.2847
125.2151,28.2847
125.1386,28.2695
125.0737,28.2262
125.0303,28.1613
125.0151,28.0847
125.0151,27.5347
125.0303,27.4582
125.0737,27.3933
125.1386,27.3500
125.2151,27.3347
125.6151,27.3347
125.6916,27.3500
125.7565,27.3933
125.7999,27.4582
125.8151,27.5347
Z" /> 
<path style="fill:#D864FF; fill-opacity:0.4000; stroke:none;fill-rule:evenodd;"
d="M 144.1595,26.2421
144.1785,26.1465
144.2327,26.0654
144.3138,26.0112
144.4095,25.9921
145.2095,25.9921
145.3052,26.0112
145.3863,26.0654
145.4405,26.1465
145.4595,26.2421
145.4595,27.1421
145.4405,27.2378
145.3863,27.3189
145.3052,27.3731
145.2095,27.3921
144.4095,27.3921
144.3138,27.3731
144.2327,27.3189
144.1785,27.2378
144.1595,27.1421
Z" /> 
<path style="fill:#D864FF; fill-opacity:0.4000; stroke:none;fill-rule:evenodd;"
d="M 147.0595,26.2421
147.0785,26.1465
147.1327,26.0654
147.2138,26.0112
147.3095,25.9921
148.1095,25.9921
148.2052,26.0112
148.2863,26.0654
148.3405,26.1465
148.3595,26.2421
148.3595,27.1421
148.3405,27.2378
148.2863,27.3189
148.2052,27.3731
148.1095,27.3921
147.3095,27.3921
147.2138,27.3731
147.1327,27.3189
147.0785,27.2378
147.0595,27.1421
Z" /> 
<path style="fill:#D864FF; fill-opacity:0.4000; stroke:none;fill-rule:evenodd;"
d="M 91.8536,18.5124
91.8536,16.8124
93.5536,16.8124
93.5536,18.5124
Z" /> 
</g>
<g style="fill:#D864FF; fill-opacity:0.4000; stroke:none;">
<circle cx="92.7036" cy="20.2024" r="0.8500" /> 
</g>
<g style="fill:#D864FF; fill-opacity:0.4000; stroke:none;">
<circle cx="92.7036" cy="22.7424" r="0.8500" /> 
</g>
<g style="fill:#D864FF; fill-opacity:0.4000; stroke:none;">
<circle cx="92.7036" cy="25.2824" r="0.8500" /> 
</g>
<g style="fill:#D864FF; fill-opacity:0.4000; stroke:none;">
<circle cx="92.7036" cy="27.8224" r="0.8500" /> 
</g>
<g style="fill:#D864FF; fill-opacity:0.4000; stroke:none;">
<circle cx="92.7036" cy="30.3624" r="0.8500" /> 
</g>
<g style="fill:#D864FF; fill-opacity:0.4000; stroke:none;">
<circle cx="92.7036" cy="32.9025" r="0.8500" /> 
</g>
<g style="fill:#D864FF; fill-opacity:0.4000; stroke:none;">
<circle cx="92.7036" cy="35.4425" r="0.8500" /> 
</g>
<g style="fill:#D864FF; fill-opacity:0.4000; stroke:none;">
<circle cx="92.7036" cy="37.9825" r="0.8500" /> 
</g>
<g style="fill:#D864FF; fill-opacity:0.4000; stroke:none;">
<circle cx="92.7036" cy="40.5224" r="0.8500" /> 
</g>
<g style="fill:#D864FF; fill-opacity:0.4000; stroke:none;">
<circle cx="92.7036" cy="43.0624" r="0.8500" /> 
</g>
<g style="fill:#D864FF; fill-opacity:0.4000; stroke:none;">
<circle cx="92.7036" cy="45.6024" r="0.8500" /> 
</g>
<g style="fill:#D864FF; fill-opacity:0.4000; stroke:none;">
<circle cx="92.7036" cy="48.1424" r="0.8500" /> 
</g>
<g style="fill:#D864FF; fill-opacity:0.4000; stroke:none;">
<circle cx="92.7036" cy="50.6824" r="0.8500" /> 
</g>
<g style="fill:#D864FF; fill-opacity:0.4000; stroke:none;">
<circle cx="92.7036" cy="53.2224" r="0.8500" /> 
</g>
<g style="fill:#D864FF; fill-opacity:0.4000; stroke:none;">
<circle cx="92.7036" cy="55.7624" r="0.8500" /> 
<path style="fill:#D864FF; fill-opacity:0.4000; stroke:none;fill-rule:evenodd;"
d="M 109.3201,31.1544
109.3737,31.1651
109.4191,31.1955
109.4494,31.2409
109.4601,31.2944
109.4601,31.5744
109.4494,31.6280
109.4191,31.6734
109.3737,31.7038
109.3201,31.7144
108.9801,31.7144
108.9265,31.7038
108.8811,31.6734
108.8507,31.6280
108.8401,31.5744
108.8401,31.2944
108.8507,31.2409
108.8811,31.1955
108.9265,31.1651
108.9801,31.1544
Z" /> 
<path style="fill:#D864FF; fill-opacity:0.4000; stroke:none;fill-rule:evenodd;"
d="M 109.3201,32.1144
109.3737,32.1251
109.4191,32.1555
109.4494,32.2009
109.4601,32.2544
109.4601,32.5344
109.4494,32.5880
109.4191,32.6334
109.3737,32.6638
109.3201,32.6745
108.9801,32.6745
108.9265,32.6638
108.8811,32.6334
108.8507,32.5880
108.8401,32.5344
108.8401,32.2544
108.8507,32.2009
108.8811,32.1555
108.9265,32.1251
108.9801,32.1144
Z" /> 
<path style="fill:#D864FF; fill-opacity:0.4000; stroke:none;fill-rule:evenodd;"
d="M 124.4315,33.3792
124.4125,33.4749
124.3583,33.5560
124.2772,33.6102
124.1815,33.6292
123.6815,33.6292
123.5858,33.6102
123.5047,33.5560
123.4505,33.4749
123.4315,33.3792
123.4315,32.4292
123.4505,32.3336
123.5047,32.2525
123.5858,32.1983
123.6815,32.1792
124.1815,32.1792
124.2772,32.1983
124.3583,32.2525
124.4125,32.3336
124.4315,32.4292
Z" /> 
<path style="fill:#D864FF; fill-opacity:0.4000; stroke:none;fill-rule:evenodd;"
d="M 122.5315,33.3792
122.5125,33.4749
122.4583,33.5560
122.3772,33.6102
122.2815,33.6292
121.7815,33.6292
121.6858,33.6102
121.6047,33.5560
121.5505,33.4749
121.5315,33.3792
121.5315,32.4292
121.5505,32.3336
121.6047,32.2525
121.6858,32.1983
121.7815,32.1792
122.2815,32.1792
122.3772,32.1983
122.4583,32.2525
122.5125,32.3336
122.5315,32.4292
Z" /> 
<path style="fill:#D864FF; fill-opacity:0.4000; stroke:none;fill-rule:evenodd;"
d="M 111.9531,27.5444
111.9341,27.6401
111.8799,27.7212
111.7988,27.7754
111.7031,27.7944
109.8531,27.7944
109.7574,27.7754
109.6763,27.7212
109.6221,27.6401
109.6031,27.5444
109.6031,24.5444
109.6221,24.4488
109.6763,24.3677
109.7574,24.3135
109.8531,24.2944
111.7031,24.2944
111.7988,24.3135
111.8799,24.3677
111.9341,24.4488
111.9531,24.5444
Z" /> 
<path style="fill:#D864FF; fill-opacity:0.4000; stroke:none;fill-rule:evenodd;"
d="M 105.9031,27.5444
105.8841,27.6401
105.8299,27.7212
105.7488,27.7754
105.6531,27.7944
103.8031,27.7944
103.7074,27.7754
103.6263,27.7212
103.5721,27.6401
103.5531,27.5444
103.5531,24.5444
103.5721,24.4488
103.6263,24.3677
103.7074,24.3135
103.8031,24.2944
105.6531,24.2944
105.7488,24.3135
105.8299,24.3677
105.8841,24.4488
105.9031,24.5444
Z" /> 
<path style="fill:#D864FF; fill-opacity:0.4000; stroke:none;fill-rule:evenodd;"
d="M 127.4312,53.9229
127.4160,53.9995
127.3726,54.0644
127.3077,54.1077
127.2312,54.1229
126.8312,54.1229
126.7547,54.1077
126.6898,54.0644
126.6464,53.9995
126.6312,53.9229
126.6312,53.3729
126.6464,53.2964
126.6898,53.2315
126.7547,53.1882
126.8312,53.1729
127.2312,53.1729
127.3077,53.1882
127.3726,53.2315
127.4160,53.2964
127.4312,53.3729
Z" /> 
<path style="fill:#D864FF; fill-opacity:0.4000; stroke:none;fill-rule:evenodd;"
d="M 125.7812,53.9229
125.7660,53.9995
125.7226,54.0644
125.6577,54.1077
125.5812,54.1229
125.1812,54.1229
125.1047,54.1077
125.0398,54.0644
124.9964,53.9995
124.9812,53.9229
124.9812,53.3729
124.9964,53.2964
125.0398,53.2315
125.1047,53.1882
125.1812,53.1729
125.5812,53.1729
125.6577,53.1882
125.7226,53.2315
125.7660,53.2964
125.7812,53.3729
Z" /> 
</g> 
</svg>
