<?xml version="1.0" standalone="no"?>
 <!DOCTYPE svg PUBLIC "-//W3C//DTD SVG 1.1//EN" 
 "http://www.w3.org/Graphics/SVG/1.1/DTD/svg11.dtd"> 
<svg
  xmlns:svg="http://www.w3.org/2000/svg"
  xmlns="http://www.w3.org/2000/svg"
  xmlns:xlink="http://www.w3.org/1999/xlink"
  version="1.1"
  width="149.6314mm" height="59.5376mm" viewBox="0.0000 0.0000 149.6314 59.5376">
<title>SVG Image created as mixpower-profiler-hv-module-v2-F_Silkscreen.svg date 2025/05/06 04:15:55 </title>
  <desc>Image generated by PCBNEW </desc>
<g style="fill:#000000; fill-opacity:1.0000;stroke:#000000; stroke-opacity:1.0000;
stroke-linecap:round; stroke-linejoin:round;"
 transform="translate(0 0) scale(1 1)">
<path style="fill:#F2EDA1; fill-opacity:1.0000; stroke:none;fill-rule:evenodd;"
d="M 102.4250,53.7553
102.4466,53.7671
102.4654,53.7877
102.4815,53.8195
102.4943,53.8663
102.5035,53.9365
102.5071,54.0377
102.5035,54.1384
102.4943,54.2085
102.4815,54.2553
102.4654,54.2871
102.4466,54.3076
102.4250,54.3194
102.3995,54.3234
102.3743,54.3194
102.3528,54.3077
102.3342,54.2872
102.3181,54.2553
102.3053,54.2085
102.2960,54.1384
102.2924,54.0377
102.2925,54.0361
102.3317,54.0361
102.3367,54.0631
102.3514,54.0850
102.3732,54.0997
102.3995,54.1046
102.4262,54.0996
102.4481,54.0847
102.4629,54.0627
102.4678,54.0361
102.4628,54.0090
102.4481,53.9869
102.4262,53.9720
102.3995,53.9670
102.3732,53.9720
102.3514,53.9869
102.3367,54.0090
102.3317,54.0361
102.2925,54.0361
102.2960,53.9365
102.3053,53.8663
102.3181,53.8195
102.3342,53.7876
102.3529,53.7671
102.3743,53.7553
102.3995,53.7513
Z" /> 
<path style="fill:#F2EDA1; fill-opacity:1.0000; stroke:none;fill-rule:evenodd;"
d="M 101.7546,52.4176
101.7787,52.4294
101.7992,52.4495
101.8165,52.4798
101.8307,52.5253
101.8409,52.5941
101.8449,52.6937
101.8409,52.7928
101.8307,52.8614
101.8165,52.9070
101.7992,52.9373
101.7787,52.9573
101.7546,52.9691
101.7258,52.9732
101.6972,52.9691
101.6733,52.9574
101.6529,52.9373
101.6356,52.9070
101.6214,52.8615
101.6112,52.7928
101.6072,52.6937
101.6112,52.5941
101.6214,52.5253
101.6356,52.4798
101.6529,52.4494
101.6733,52.4294
101.6972,52.4176
101.7258,52.4136
Z" /> 
<path style="fill:#F2EDA1; fill-opacity:1.0000; stroke:none;fill-rule:evenodd;"
d="M 102.3897,52.4366
102.4267,52.4483
102.4557,52.4666
102.4782,52.4916
102.4939,52.5212
102.5066,52.5624
102.5153,52.6183
102.5186,52.6925
102.5153,52.7674
102.5066,52.8237
102.4938,52.8651
102.4782,52.8949
102.4556,52.9200
102.4266,52.9384
102.3897,52.9501
102.3427,52.9544
102.2990,52.9544
102.2990,52.4323
102.3427,52.4323
Z" /> 
<path style="fill:#F2EDA1; fill-opacity:1.0000; stroke:none;fill-rule:evenodd;"
d="M 101.4177,51.0736
101.4418,51.0854
101.4623,51.1055
101.4796,51.1358
101.4938,51.1813
101.5040,51.2501
101.5080,51.3497
101.5040,51.4488
101.4938,51.5174
101.4796,51.5630
101.4623,51.5933
101.4418,51.6133
101.4177,51.6251
101.3889,51.6292
101.3604,51.6251
101.3365,51.6134
101.3160,51.5933
101.2987,51.5630
101.2846,51.5175
101.2744,51.4488
101.2704,51.3497
101.2744,51.2501
101.2846,51.1813
101.2987,51.1358
101.3161,51.1054
101.3365,51.0854
101.3604,51.0736
101.3889,51.0696
Z" /> 
<path style="fill:#F2EDA1; fill-opacity:1.0000; stroke:none;fill-rule:evenodd;"
d="M 104.1126,51.0736
104.1367,51.0854
104.1572,51.1055
104.1745,51.1358
104.1887,51.1813
104.1989,51.2501
104.2029,51.3497
104.1989,51.4488
104.1887,51.5174
104.1745,51.5630
104.1572,51.5933
104.1367,51.6133
104.1126,51.6251
104.0838,51.6292
104.0552,51.6251
104.0314,51.6134
104.0109,51.5933
103.9936,51.5630
103.9795,51.5175
103.9692,51.4488
103.9652,51.3497
103.9692,51.2501
103.9795,51.1813
103.9936,51.1358
104.0109,51.1054
104.0314,51.0854
104.0553,51.0736
104.0838,51.0696
Z" /> 
<path style="fill:#F2EDA1; fill-opacity:1.0000; stroke:none;fill-rule:evenodd;"
d="M 104.7746,51.0793
104.8051,51.0885
104.8258,51.1018
104.8407,51.1211
104.8505,51.1489
104.8543,51.1881
104.8505,51.2272
104.8406,51.2551
104.8255,51.2746
104.8047,51.2882
104.7742,51.2974
104.7307,51.3009
104.6548,51.3009
104.6548,51.0758
104.7307,51.0758
Z" /> 
<path style="fill:#F2EDA1; fill-opacity:1.0000; stroke:none;fill-rule:evenodd;"
d="M 102.0797,49.7353
102.1103,49.7445
102.1310,49.7578
102.1458,49.7771
102.1557,49.8049
102.1594,49.8441
102.1556,49.8832
102.1457,49.9111
102.1307,49.9306
102.1098,49.9442
102.0793,49.9534
102.0359,49.9569
101.9599,49.9569
101.9599,49.7318
102.0359,49.7318
Z" /> 
<path style="fill:#F2EDA1; fill-opacity:1.0000; stroke:none;fill-rule:evenodd;"
d="M 102.7535,49.7353
102.7840,49.7445
102.8047,49.7578
102.8195,49.7771
102.8294,49.8049
102.8331,49.8441
102.8294,49.8832
102.8194,49.9111
102.8044,49.9306
102.7835,49.9442
102.7531,49.9534
102.7096,49.9569
102.6336,49.9569
102.6336,49.7318
102.7096,49.7318
Z" /> 
<path style="fill:#F2EDA1; fill-opacity:1.0000; stroke:none;fill-rule:evenodd;"
d="M 104.4495,48.3856
104.4735,48.3974
104.4941,48.4175
104.5114,48.4478
104.5255,48.4933
104.5358,48.5621
104.5398,48.6617
104.5358,48.7608
104.5255,48.8294
104.5114,48.8750
104.4941,48.9053
104.4736,48.9253
104.4495,48.9371
104.4206,48.9412
104.3921,48.9371
104.3682,48.9254
104.3478,48.9053
104.3305,48.8750
104.3163,48.8295
104.3061,48.7608
104.3021,48.6617
104.3061,48.5621
104.3163,48.4933
104.3305,48.4478
104.3478,48.4174
104.3682,48.3974
104.3921,48.3856
104.4206,48.3816
Z" /> 
<path style="fill:#F2EDA1; fill-opacity:1.0000; stroke:none;fill-rule:evenodd;"
d="M 101.1286,48.7348
100.9761,48.7348
101.0521,48.4010
Z" /> 
<path style="fill:#F2EDA1; fill-opacity:1.0000; stroke:none;fill-rule:evenodd;"
d="M 102.3897,48.4046
102.4267,48.4163
102.4557,48.4346
102.4782,48.4596
102.4939,48.4892
102.5066,48.5304
102.5153,48.5863
102.5186,48.6605
102.5153,48.7354
102.5066,48.7917
102.4938,48.8331
102.4782,48.8629
102.4556,48.8880
102.4266,48.9064
102.3897,48.9181
102.3427,48.9224
102.2990,48.9224
102.2990,48.4003
102.3427,48.4003
Z" /> 
<path style="fill:#F2EDA1; fill-opacity:1.0000; stroke:none;fill-rule:evenodd;"
d="M 103.1498,48.7348
102.9972,48.7348
103.0733,48.4010
Z" /> 
<path style="fill:#F2EDA1; fill-opacity:1.0000; stroke:none;fill-rule:evenodd;"
d="M 106.1315,54.5610
99.3385,54.5610
99.3385,53.8326
101.4329,53.8326
101.6274,54.4453
101.8247,54.4453
101.9541,54.0377
102.1301,54.0377
102.1353,54.1469
102.1493,54.2338
102.1704,54.3021
102.1973,54.3552
102.2271,54.3934
102.2614,54.4225
102.3009,54.4435
102.3464,54.4564
102.3995,54.4610
102.4528,54.4564
102.4919,54.4453
102.9820,54.4453
103.1640,54.4453
103.1640,54.3047
103.5130,54.3047
103.5130,54.4453
104.0306,54.4453
104.0306,54.3047
103.8502,54.3047
103.8502,53.6294
103.6945,53.6294
103.5256,53.6700
103.5256,53.8170
103.6934,53.7732
103.6934,54.3047
103.5130,54.3047
103.1640,54.3047
103.1640,54.2453
102.9820,54.2453
102.9820,54.4453
102.4919,54.4453
102.4986,54.4435
102.5381,54.4226
102.5725,54.3935
102.6023,54.3554
102.6291,54.3025
102.6502,54.2342
102.6643,54.1473
102.6695,54.0377
102.6643,53.9277
102.6502,53.8406
102.6291,53.7722
102.6023,53.7193
102.5725,53.6812
102.5381,53.6521
102.4986,53.6313
102.4528,53.6183
102.3995,53.6138
102.3464,53.6183
102.3009,53.6313
102.2614,53.6522
102.2271,53.6813
102.1973,53.7196
102.1704,53.7727
102.1493,53.8410
102.1353,53.9280
102.1301,54.0377
101.9541,54.0377
102.0192,53.8326
101.8570,53.8326
101.7258,54.3108
101.5952,53.8326
101.4329,53.8326
99.3385,53.8326
99.3385,53.1013
100.7624,53.1013
100.9013,53.1013
100.9013,52.4476
100.9887,52.8043
101.1171,52.8043
101.2034,52.4476
101.2034,53.1013
101.3423,53.1013
101.3423,52.6937
101.4394,52.6937
101.4430,52.7813
101.4529,52.8549
101.4681,52.9165
101.4879,52.9676
101.5118,53.0098
101.5436,53.0484
101.5800,53.0779
101.6218,53.0992
101.6699,53.1124
101.7258,53.1170
101.7819,53.1123
101.8301,53.0991
101.8720,53.0779
101.9085,53.0484
101.9403,53.0098
101.9641,52.9676
101.9693,52.9544
102.1378,52.9544
102.1378,53.1013
102.3104,53.1013
102.3934,53.0967
102.4615,53.0837
102.5170,53.0637
102.5621,53.0376
102.5984,53.0055
102.6274,52.9668
102.6513,52.9184
102.6698,52.8581
102.6795,52.7993
102.7945,52.7993
102.7996,52.8846
102.8134,52.9511
102.8342,53.0024
102.8609,53.0414
102.8964,53.0727
102.9420,53.0962
102.9999,53.1114
103.0733,53.1170
103.1336,53.1134
103.1834,53.1033
103.1885,53.1013
103.5333,53.1013
104.0393,53.1013
104.1759,53.1013
104.6841,53.1013
104.6841,52.9607
104.3371,52.9607
104.3371,52.7449
104.6513,52.7449
104.6513,52.6043
104.3371,52.6043
104.3371,52.4261
104.6841,52.4261
104.6841,52.2854
104.1759,52.2854
104.1759,53.1013
104.0393,53.1013
104.0393,52.9607
103.6945,52.9607
103.6945,52.2854
103.5333,52.2854
103.5333,53.1013
103.1885,53.1013
103.2245,53.0877
103.2583,53.0670
103.2858,53.0414
103.3124,53.0024
103.3331,52.9512
103.3468,52.8847
103.3519,52.7993
103.3519,52.2854
103.1907,52.2854
103.1907,52.8397
103.1869,52.8793
103.1763,52.9106
103.1596,52.9354
103.1367,52.9543
103.1085,52.9659
103.0732,52.9700
103.0379,52.9659
103.0097,52.9543
102.9868,52.9354
102.9701,52.9106
102.9596,52.8793
102.9557,52.8397
102.9557,52.2854
102.7945,52.2854
102.7945,52.7993
102.6795,52.7993
102.6820,52.7837
102.6864,52.6925
102.6820,52.6016
102.6698,52.5275
102.6513,52.4674
102.6274,52.4192
102.5984,52.3808
102.5622,52.3488
102.5171,52.3228
102.4615,52.3030
102.3935,52.2901
102.3104,52.2854
102.1378,52.2854
102.1378,52.9544
101.9693,52.9544
101.9840,52.9165
101.9992,52.8549
102.0091,52.7813
102.0127,52.6937
102.0091,52.6057
101.9992,52.5319
101.9840,52.4703
101.9641,52.4192
101.9403,52.3770
101.9085,52.3384
101.8720,52.3089
101.8301,52.2876
101.7818,52.2744
101.7258,52.2698
101.6699,52.2744
101.6218,52.2876
101.5801,52.3088
101.5436,52.3384
101.5118,52.3770
101.4880,52.4192
101.4681,52.4703
101.4529,52.5319
101.4430,52.6057
101.4394,52.6937
101.3423,52.6937
101.3423,52.2854
101.1488,52.2854
101.0521,52.6432
100.9548,52.2854
100.7624,52.2854
100.7624,53.1013
99.3385,53.1013
99.3385,51.7573
100.4256,51.7573
100.5644,51.7573
100.5644,51.1036
100.6518,51.4603
100.7803,51.4603
100.8666,51.1036
100.8666,51.7573
101.0054,51.7573
101.0054,51.3497
101.1026,51.3497
101.1061,51.4373
101.1160,51.5109
101.1313,51.5725
101.1511,51.6236
101.1749,51.6658
101.2067,51.7044
101.2432,51.7339
101.2850,51.7552
101.3331,51.7684
101.3889,51.7730
101.4450,51.7683
101.4852,51.7573
101.7910,51.7573
101.9331,51.7573
101.9331,51.1644
102.1615,51.7573
102.3337,51.7573
102.3337,51.0821
102.4937,51.0821
102.6560,51.0821
102.6560,51.6167
102.4937,51.6167
102.4937,51.7573
102.9796,51.7573
102.9796,51.6167
102.8172,51.6167
102.8172,51.0821
102.9796,51.0821
103.1226,51.0821
103.3298,51.0821
103.3298,51.7573
103.4910,51.7573
103.4910,51.3497
103.7974,51.3497
103.8010,51.4373
103.8109,51.5109
103.8261,51.5725
103.8460,51.6236
103.8698,51.6658
103.9016,51.7044
103.9381,51.7339
103.9799,51.7552
104.0280,51.7684
104.0838,51.7730
104.1399,51.7683
104.1882,51.7551
104.2300,51.7339
104.2665,51.7044
104.2983,51.6658
104.3222,51.6236
104.3420,51.5725
104.3572,51.5109
104.3672,51.4373
104.3707,51.3497
104.3687,51.3009
104.4936,51.3009
104.4936,51.7573
104.6548,51.7573
104.6548,51.4353
104.7062,51.4353
104.7318,51.4401
104.7568,51.4549
104.7820,51.4825
104.8078,51.5276
104.8193,51.5516
104.9176,51.7573
105.0947,51.7573
104.9472,51.4643
104.9212,51.4180
104.9037,51.3956
104.8843,51.3811
104.8619,51.3730
104.9109,51.3614
104.9496,51.3414
104.9800,51.3133
105.0020,51.2779
105.0159,51.2340
105.0209,51.1791
105.0159,51.1160
105.0021,51.0663
104.9809,51.0275
104.9524,50.9973
104.9173,50.9751
104.8702,50.9576
104.8078,50.9458
104.7264,50.9414
104.4936,50.9414
104.4936,51.3009
104.3687,51.3009
104.3672,51.2617
104.3572,51.1879
104.3420,51.1263
104.3222,51.0752
104.2983,51.0330
104.2665,50.9944
104.2300,50.9649
104.1881,50.9436
104.1399,50.9304
104.0838,50.9258
104.0280,50.9304
103.9799,50.9436
103.9381,50.9648
103.9016,50.9944
103.8698,51.0330
103.8460,51.0752
103.8262,51.1263
103.8109,51.1879
103.8010,51.2617
103.7974,51.3497
103.4910,51.3497
103.4910,51.0821
103.6981,51.0821
103.6981,50.9414
103.1226,50.9414
103.1226,51.0821
102.9796,51.0821
102.9796,50.9414
102.4937,50.9414
102.4937,51.0821
102.3337,51.0821
102.3337,50.9414
102.1916,50.9414
102.1916,51.5344
101.9643,50.9414
101.7910,50.9414
101.7910,51.7573
101.4852,51.7573
101.4933,51.7551
101.5352,51.7339
101.5717,51.7044
101.6034,51.6658
101.6273,51.6236
101.6471,51.5725
101.6624,51.5109
101.6723,51.4373
101.6758,51.3497
101.6723,51.2617
101.6624,51.1879
101.6471,51.1263
101.6273,51.0752
101.6034,51.0330
101.5717,50.9944
101.5352,50.9649
101.4933,50.9436
101.4450,50.9304
101.3889,50.9258
101.3331,50.9304
101.2850,50.9436
101.2432,50.9648
101.2067,50.9944
101.1749,51.0330
101.1511,51.0752
101.1313,51.1263
101.1160,51.1879
101.1061,51.2617
101.1026,51.3497
101.0054,51.3497
101.0054,50.9414
100.8120,50.9414
100.7152,51.2992
100.6179,50.9414
100.4256,50.9414
100.4256,51.7573
99.3385,51.7573
99.3385,50.0057
100.4617,50.0057
100.4658,50.0908
100.4774,50.1632
100.4955,50.2245
100.5193,50.2764
100.5486,50.3201
100.5857,50.3587
100.6284,50.3886
100.6776,50.4105
100.7345,50.4242
100.8005,50.4290
100.8462,50.4264
100.8890,50.4188
100.9301,50.4061
100.9693,50.3883
100.9693,50.2101
100.9270,50.2448
100.8887,50.2671
100.8489,50.2807
100.8081,50.2852
100.7655,50.2805
100.7299,50.2673
100.6999,50.2456
100.6745,50.2146
100.6564,50.1792
100.6422,50.1340
100.6385,50.1113
101.1102,50.1113
101.1153,50.1966
101.1291,50.2631
101.1499,50.3144
101.1766,50.3534
101.2121,50.3847
101.2577,50.4082
101.3156,50.4234
101.3890,50.4290
101.4493,50.4254
101.4991,50.4153
101.5402,50.3997
101.5740,50.3790
101.6015,50.3534
101.6281,50.3144
101.6488,50.2632
101.6625,50.1966
101.6676,50.1113
101.6676,49.9569
101.7987,49.9569
101.7987,50.4134
101.9599,50.4134
101.9599,50.0913
102.0113,50.0913
102.0369,50.0961
102.0619,50.1109
102.0871,50.1385
102.1129,50.1836
102.1244,50.2076
102.2228,50.4134
102.3998,50.4134
102.2523,50.1203
102.2263,50.0740
102.2088,50.0516
102.1894,50.0371
102.1670,50.0290
102.2160,50.0174
102.2547,49.9974
102.2851,49.9693
102.2928,49.9569
102.4724,49.9569
102.4724,50.4134
102.6336,50.4134
102.6336,50.0913
102.6850,50.0913
102.7107,50.0961
102.7356,50.1109
102.7608,50.1385
102.7867,50.1836
102.7981,50.2076
102.8965,50.4134
103.0735,50.4134
103.1653,50.4134
103.6735,50.4134
103.8122,50.4134
103.9543,50.4134
103.9543,49.8204
104.1827,50.4134
104.3549,50.4134
104.3549,49.7381
104.4701,49.7381
104.6772,49.7381
104.6772,50.4134
104.8384,50.4134
104.8384,49.7381
105.0455,49.7381
105.0455,49.5974
104.4701,49.5974
104.4701,49.7381
104.3549,49.7381
104.3549,49.5974
104.2128,49.5974
104.2128,50.1904
103.9855,49.5974
103.8122,49.5974
103.8122,50.4134
103.6735,50.4134
103.6735,50.2727
103.3265,50.2727
103.3265,50.0570
103.6407,50.0570
103.6407,49.9163
103.3265,49.9163
103.3265,49.7381
103.6735,49.7381
103.6735,49.5974
103.1653,49.5974
103.1653,50.4134
103.0735,50.4134
102.9260,50.1203
102.9000,50.0740
102.8825,50.0516
102.8631,50.0371
102.8407,50.0290
102.8897,50.0174
102.9284,49.9974
102.9588,49.9693
102.9808,49.9339
102.9948,49.8900
102.9998,49.8351
102.9948,49.7720
102.9810,49.7223
102.9597,49.6835
102.9312,49.6533
102.8962,49.6311
102.8490,49.6136
102.7866,49.6018
102.7052,49.5974
102.4724,49.5974
102.4724,49.9569
102.2928,49.9569
102.3071,49.9339
102.3210,49.8900
102.3261,49.8351
102.3210,49.7720
102.3072,49.7223
102.2860,49.6835
102.2575,49.6533
102.2225,49.6311
102.1753,49.6136
102.1129,49.6018
102.0315,49.5974
101.7987,49.5974
101.7987,49.9569
101.6676,49.9569
101.6676,49.5974
101.5064,49.5974
101.5064,50.1517
101.5026,50.1913
101.4920,50.2226
101.4753,50.2474
101.4524,50.2663
101.4242,50.2779
101.3889,50.2820
101.3536,50.2779
101.3254,50.2663
101.3025,50.2474
101.2858,50.2226
101.2753,50.1913
101.2714,50.1517
101.2714,49.5974
101.1102,49.5974
101.1102,50.1113
100.6385,50.1113
100.6329,50.0770
100.6294,50.0057
100.6329,49.9340
100.6423,49.8768
100.6564,49.8316
100.6745,49.7961
100.6999,49.7651
100.7299,49.7435
100.7655,49.7302
100.8081,49.7256
100.8489,49.7300
100.8887,49.7436
100.9270,49.7659
100.9693,49.8006
100.9693,49.6224
100.9310,49.6047
100.8895,49.5919
100.8463,49.5843
100.8005,49.5818
100.7345,49.5866
100.6776,49.6003
100.6284,49.6221
100.5857,49.6521
100.5486,49.6906
100.5193,49.7343
100.4955,49.7862
100.4774,49.8477
100.4658,49.9202
100.4617,50.0057
99.3385,50.0057
99.3385,48.4760
99.4385,48.4760
99.4438,48.5322
99.4584,48.5774
99.4817,48.6138
99.5140,48.6436
99.5666,48.6761
99.6467,48.7116
99.7260,48.7420
99.7635,48.7613
99.7893,48.7851
99.8057,48.8145
99.8112,48.8487
99.8073,48.8793
99.7964,48.9038
99.7784,48.9237
99.7551,48.9380
99.7249,48.9472
99.6860,48.9505
99.6273,48.9453
99.5666,48.9290
99.5068,48.9025
99.4418,48.8630
99.4418,49.0287
99.4997,49.0532
99.5595,49.0708
99.6206,49.0815
99.6811,49.0850
99.7563,49.0804
99.8164,49.0679
99.8641,49.0488
99.9016,49.0239
99.9325,48.9910
99.9550,48.9504
99.9694,48.9005
99.9746,48.8391
99.9691,48.7801
99.9534,48.7305
99.9281,48.6886
99.8936,48.6532
99.8463,48.6212
99.7834,48.5927
99.7139,48.5662
99.6488,48.5380
99.6191,48.5177
99.6022,48.4931
99.5964,48.4622
99.6001,48.4348
99.6104,48.4130
99.6275,48.3955
99.6495,48.3832
99.6787,48.3752
99.7172,48.3722
99.7694,48.3767
99.8232,48.3905
99.8757,48.4128
99.9287,48.4441
99.9287,48.3941
100.0909,48.3941
100.2980,48.3941
100.2980,49.0694
100.4592,49.0694
100.7335,49.0694
100.8947,49.0694
100.9438,48.8661
101.1597,48.8661
101.2100,49.0694
101.3712,49.0694
101.4542,49.0694
101.5963,49.0694
101.5963,48.4764
101.8247,49.0694
101.9969,49.0694
101.9969,48.9224
102.1378,48.9224
102.1378,49.0694
102.3104,49.0694
102.7546,49.0694
102.9159,49.0694
102.9650,48.8661
103.1809,48.8661
103.2312,49.0694
103.3924,49.0694
103.5333,49.0694
104.0393,49.0694
104.0393,48.9287
103.6945,48.9287
103.6945,48.6617
104.1343,48.6617
104.1379,48.7493
104.1478,48.8229
104.1630,48.8845
104.1828,48.9356
104.2067,48.9778
104.2384,49.0164
104.2749,49.0459
104.3167,49.0672
104.3648,49.0804
104.4206,49.0850
104.4767,49.0803
104.5169,49.0694
104.8228,49.0694
104.9649,49.0694
104.9649,48.4764
105.1933,49.0694
105.3655,49.0694
105.5233,49.0694
106.0315,49.0694
106.0315,48.9287
105.6845,48.9287
105.6845,48.7129
105.9987,48.7129
105.9987,48.5723
105.6845,48.5723
105.6845,48.3941
106.0315,48.3941
106.0315,48.2534
105.5233,48.2534
105.5233,49.0694
105.3655,49.0694
105.3655,48.2534
105.2234,48.2534
105.2234,48.8464
104.9960,48.2534
104.8228,48.2534
104.8228,49.0694
104.5169,49.0694
104.5250,49.0671
104.5669,49.0459
104.6034,49.0164
104.6351,48.9778
104.6590,48.9356
104.6789,48.8845
104.6941,48.8229
104.7040,48.7493
104.7076,48.6617
104.7040,48.5737
104.6941,48.4999
104.6788,48.4383
104.6590,48.3872
104.6351,48.3450
104.6034,48.3064
104.5669,48.2769
104.5250,48.2556
104.4767,48.2424
104.4206,48.2378
104.3648,48.2424
104.3167,48.2556
104.2749,48.2768
104.2385,48.3064
104.2067,48.3450
104.1828,48.3872
104.1630,48.4383
104.1478,48.4999
104.1379,48.5737
104.1343,48.6617
103.6945,48.6617
103.6945,48.2534
103.5333,48.2534
103.5333,49.0694
103.3924,49.0694
103.1721,48.2534
102.9749,48.2534
102.8449,48.7348
102.7546,49.0694
102.3104,49.0694
102.3934,49.0647
102.4615,49.0517
102.5170,49.0317
102.5621,49.0056
102.5984,48.9735
102.6274,48.9348
102.6513,48.8864
102.6698,48.8261
102.6820,48.7517
102.6864,48.6605
102.6820,48.5696
102.6698,48.4955
102.6513,48.4354
102.6274,48.3872
102.5984,48.3488
102.5622,48.3168
102.5171,48.2908
102.4615,48.2710
102.3935,48.2581
102.3104,48.2534
102.1378,48.2534
102.1378,48.9224
101.9969,48.9224
101.9969,48.2534
101.8548,48.2534
101.8548,48.8464
101.6274,48.2534
101.4542,48.2534
101.4542,49.0694
101.3712,49.0694
101.1510,48.2534
100.9537,48.2534
100.8238,48.7348
100.7335,49.0694
100.4592,49.0694
100.4592,48.3941
100.6663,48.3941
100.6663,48.2534
100.0909,48.2534
100.0909,48.3941
99.9287,48.3941
99.9287,48.2878
99.8729,48.2660
99.8172,48.2504
99.7607,48.2409
99.7046,48.2378
99.6426,48.2422
99.5905,48.2547
99.5466,48.2745
99.5095,48.3013
99.4789,48.3353
99.4570,48.3750
99.4433,48.4214
99.4385,48.4760
99.3385,48.4760
99.3385,48.1378
106.1315,48.1378
Z" /> 
</g>
<g style="fill:none; 
stroke:#F2EDA1; stroke-width:0.1200; stroke-opacity:1; 
stroke-linecap:round; stroke-linejoin:round;">
<path d="M141.7979 29.1049
L141.7979 44.3449
" />
<path d="M141.7979 29.1049
L149.4179 29.1049
" />
<path d="M141.7979 44.3449
L149.4179 44.3449
" />
<path d="M143.0679 29.1049
L143.0679 44.3449
" />
<path d="M149.4179 29.1049
L149.4179 44.3449
" />
<path d="M119.4284 38.5827
L119.4284 36.6326
" />
<path d="M119.4284 38.5827
L119.4284 40.5326
" />
<path d="M124.5484 38.5827
L124.5484 36.6326
" />
<path d="M124.5484 38.5827
L124.5484 40.5326
" />
<path style="fill:#F2EDA1; fill-opacity:1.0000; 
stroke:#F2EDA1; stroke-width:0.1200; stroke-opacity:1; 
stroke-linecap:round; stroke-linejoin:round;fill-rule:evenodd;"
d="M 124.7834,36.1227
124.4534,35.8826
124.7834,35.6426
Z" /> 
</g>
<g style="fill:none; 
stroke:#F2EDA1; stroke-width:0.1200; stroke-opacity:1; 
stroke-linecap:round; stroke-linejoin:round;">
<path d="M99.8547 33.1612
L99.8547 27.6512
" />
<path d="M99.8547 33.1612
L103.1547 33.1612
" />
<path d="M103.1547 33.1612
L103.1547 27.6512
" />
<path d="M123.4426 16.9494
L122.9680 16.9494
" />
<path d="M123.4426 17.9945
L122.9680 17.9945
" />
<path d="M119.4627 24.8379
L119.4627 22.8880
" />
<path d="M119.4627 24.8379
L119.4627 26.7879
" />
<path d="M124.5827 24.8379
L124.5827 22.8880
" />
<path d="M124.5827 24.8379
L124.5827 26.7879
" />
<path style="fill:#F2EDA1; fill-opacity:1.0000; 
stroke:#F2EDA1; stroke-width:0.1200; stroke-opacity:1; 
stroke-linecap:round; stroke-linejoin:round;fill-rule:evenodd;"
d="M 124.8177,22.3779
124.4877,22.1380
124.8177,21.8979
Z" /> 
</g>
<g style="fill:none; 
stroke:#F2EDA1; stroke-width:0.1200; stroke-opacity:1; 
stroke-linecap:round; stroke-linejoin:round;">
<path d="M144.6422 47.3587
L144.6422 47.1430
" />
<path d="M145.3622 47.3587
L145.3622 47.1430
" />
<path d="M106.6046 29.8844
L105.8046 29.8844
" />
<path d="M106.6046 29.8844
L107.4046 29.8844
" />
<path d="M106.6046 33.0044
L105.8046 33.0044
" />
<path d="M106.6046 33.0044
L107.4046 33.0044
" />
<path style="fill:#F2EDA1; fill-opacity:1.0000; 
stroke:#F2EDA1; stroke-width:0.1200; stroke-opacity:1; 
stroke-linecap:round; stroke-linejoin:round;fill-rule:evenodd;"
d="M 105.3046,29.9344
105.0646,29.6044
105.5446,29.6044
Z" /> 
</g>
<g style="fill:none; 
stroke:#F2EDA1; stroke-width:0.1200; stroke-opacity:1; 
stroke-linecap:round; stroke-linejoin:round;">
<path d="M98.6488 56.1412
L98.6488 58.4262
" />
<path d="M98.6488 58.4262
L100.1188 58.4262
" />
<path d="M100.1188 58.4262
L100.1188 56.1412
" />
<path d="M117.5323 40.8388
L117.5323 40.3163
" />
<path d="M119.0023 40.8388
L119.0023 40.3163
" />
<path d="M105.6461 35.2148
L105.3388 35.2148
" />
<path d="M105.6461 35.9748
L105.3388 35.9748
" />
<path d="M117.5591 54.4553
L117.5591 53.9328
" />
<path d="M119.0291 54.4553
L119.0291 53.9328
" />
<path d="M104.8619 19.0370
L104.8619 20.7075
" />
<path d="M106.6819 19.0370
L106.6819 20.7075
" />
</g>
<g style="fill:none; 
stroke:#F2EDA1; stroke-width:0.1524; stroke-opacity:1; 
stroke-linecap:round; stroke-linejoin:round;">
<path d="M128.2622 30.7198
L128.2622 31.0856
" />
<path d="M128.2622 36.0183
L128.2622 36.3840
" />
<path d="M128.2622 36.3840
L134.7138 36.3840
" />
<path d="M134.7138 30.7198
L128.2622 30.7198
" />
<path d="M134.7138 31.0856
L134.7138 30.7198
" />
<path d="M134.7138 36.3840
L134.7138 36.0183
" />
</g>
<g style="fill:none; 
stroke:#F2EDA1; stroke-width:0.1200; stroke-opacity:1; 
stroke-linecap:round; stroke-linejoin:round;">
<path d="M123.4326 30.6291
L122.9581 30.6291
" />
<path d="M123.4326 31.6741
L122.9581 31.6741
" />
<path d="M126.4293 41.0304
L125.9548 41.0304
" />
<path d="M126.4293 42.0754
L125.9548 42.0754
" />
<path d="M136.2273 22.9403
L136.2273 27.2944
" />
<path d="M139.6473 22.9403
L139.6473 27.2944
" />
<path d="M123.2634 18.4642
L122.7409 18.4642
" />
<path d="M123.2634 19.9341
L122.7409 19.9341
" />
<path d="M146.9507 46.5946
L147.4732 46.5946
" />
<path d="M146.9507 48.0647
L147.4732 48.0647
" />
<path d="M105.6257 36.1746
L105.4101 36.1746
" />
<path d="M105.6257 36.8946
L105.4101 36.8946
" />
<path d="M100.2230 57.2473
L100.2230 56.9400
" />
<path d="M100.9830 57.2473
L100.9830 56.9400
" />
<path d="M123.8869 34.0301
L123.6713 34.0301
" />
<path d="M123.8869 34.7501
L123.6713 34.7501
" />
<path d="M123.8973 20.2869
L123.6817 20.2869
" />
<path d="M123.8973 21.0069
L123.6817 21.0069
" />
<path d="M126.4293 39.5318
L125.9548 39.5318
" />
<path d="M126.4293 40.5769
L125.9548 40.5769
" />
<path d="M124.8977 25.5747
L124.8977 21.7147
" />
<path d="M124.8977 25.5747
L126.8977 25.5747
" />
<path d="M126.8977 25.5747
L126.8977 21.7147
" />
<path d="M105.3388 34.2496
L105.6461 34.2496
" />
<path d="M105.3388 35.0097
L105.6461 35.0097
" />
<path d="M101.8311 22.8708
L101.3086 22.8708
" />
<path d="M101.8311 24.3408
L101.3086 24.3408
" />
<path d="M117.5935 27.1058
L117.5935 26.5833
" />
<path d="M119.0635 27.1058
L119.0635 26.5833
" />
<path d="M95.9782 42.4160
L95.9782 41.0060
" />
<path d="M98.2982 42.4061
L98.2982 41.0060
" />
<path style="fill:#F2EDA1; fill-opacity:1.0000; 
stroke:#F2EDA1; stroke-width:0.1200; stroke-opacity:1; 
stroke-linecap:round; stroke-linejoin:round;fill-rule:evenodd;"
d="M 96.0282,42.7860
95.6982,43.0260
95.6982,42.5461
Z" /> 
</g>
<g style="fill:none; 
stroke:#F2EDA1; stroke-width:0.1200; stroke-opacity:1; 
stroke-linecap:round; stroke-linejoin:round;">
<path d="M115.9165 25.1221
L115.9165 19.6121
" />
<path d="M115.9165 25.1221
L119.2165 25.1221
" />
<path d="M119.2165 25.1221
L119.2165 19.6121
" />
<path d="M123.8909 47.6237
L123.6753 47.6237
" />
<path d="M123.8909 48.3437
L123.6753 48.3437
" />
</g>
<g style="fill:none; 
stroke:#F2EDA1; stroke-width:0.1524; stroke-opacity:1; 
stroke-linecap:round; stroke-linejoin:round;">
<path d="M128.2636 50.3967
L128.2636 50.7625
" />
<path d="M128.2636 55.6952
L128.2636 56.0609
" />
<path d="M128.2636 56.0609
L134.7152 56.0609
" />
<path d="M134.7152 50.3967
L128.2636 50.3967
" />
<path d="M134.7152 50.7625
L134.7152 50.3967
" />
<path d="M134.7152 56.0609
L134.7152 55.6952
" />
</g>
<g style="fill:none; 
stroke:#F2EDA1; stroke-width:0.1200; stroke-opacity:1; 
stroke-linecap:round; stroke-linejoin:round;">
<path d="M136.1116 36.6327
L136.1116 40.9868
" />
<path d="M139.5316 36.6327
L139.5316 40.9868
" />
<path d="M124.8633 52.9115
L124.8633 49.0515
" />
<path d="M124.8633 52.9115
L126.8633 52.9115
" />
<path d="M126.8633 52.9115
L126.8633 49.0515
" />
<path d="M123.4462 44.2608
L122.9717 44.2608
" />
<path d="M123.4462 45.3058
L122.9717 45.3058
" />
<path d="M126.4434 54.6113
L125.9689 54.6113
" />
<path d="M126.4434 55.6563
L125.9689 55.6563
" />
<path d="M100.9221 34.6122
L100.9221 35.1347
" />
<path d="M102.3921 34.6122
L102.3921 35.1347
" />
<path d="M102.2219 17.5122
L102.2219 21.2722
" />
<path d="M104.2419 17.5122
L102.2219 17.5122
" />
<path d="M104.2419 17.5122
L104.2419 21.2722
" />
<path d="M126.4652 25.7887
L125.9906 25.7887
" />
<path d="M126.4652 26.8336
L125.9906 26.8336
" />
<path d="M109.8883 31.1832
L109.8883 31.7057
" />
<path d="M111.3583 31.1832
L111.3583 31.7057
" />
<path d="M100.1237 20.6522
L100.1237 21.1747
" />
<path d="M101.5937 20.6522
L101.5937 21.1747
" />
<path d="M144.2318 30.2651
L145.6118 30.2651
" />
<path d="M144.2318 31.6451
L144.2318 30.2651
" />
<path d="M144.2318 32.9151
L144.2318 45.7251
" />
<path d="M144.2318 32.9151
L146.9918 32.9151
" />
<path d="M144.2318 45.7251
L146.9918 45.7251
" />
<path d="M146.9918 32.9151
L146.9918 45.7251
" />
<path d="M123.2543 45.7882
L122.7318 45.7882
" />
<path d="M123.2543 47.2582
L122.7318 47.2582
" />
<path d="M101.3302 55.6936
L103.3302 55.6936
" />
<path d="M101.3302 58.4936
L101.3302 55.6936
" />
<path d="M103.3302 55.6936
L103.3302 58.4936
" />
<path d="M103.3302 58.4936
L101.3302 58.4936
" />
<path d="M98.9409 34.6224
L98.9409 35.1449
" />
<path d="M100.4109 34.6224
L100.4109 35.1449
" />
<path d="M115.8694 52.4655
L115.8694 46.9555
" />
<path d="M115.8694 52.4655
L119.1694 52.4655
" />
<path d="M119.1694 52.4655
L119.1694 46.9555
" />
<path d="M144.5831 48.4883
L143.0831 48.4883
" />
<path d="M144.5831 48.4883
L146.0831 48.4883
" />
<path d="M144.5831 51.7082
L143.0831 51.7082
" />
<path d="M144.5831 51.7082
L146.0831 51.7082
" />
<path style="fill:#F2EDA1; fill-opacity:1.0000; 
stroke:#F2EDA1; stroke-width:0.1200; stroke-opacity:1; 
stroke-linecap:round; stroke-linejoin:round;fill-rule:evenodd;"
d="M 147.0356,51.8382
146.5556,51.8382
146.7956,51.5082
Z" /> 
</g>
<g style="fill:none; 
stroke:#F2EDA1; stroke-width:0.1200; stroke-opacity:1; 
stroke-linecap:round; stroke-linejoin:round;">
<path d="M100.1490 17.7401
L100.6032 17.7401
" />
<path d="M100.1490 19.2100
L100.6032 19.2100
" />
<path d="M106.2832 55.6936
L108.2832 55.6936
" />
<path d="M106.2832 58.4936
L106.2832 55.6936
" />
<path d="M108.2832 55.6936
L108.2832 58.4936
" />
<path d="M108.2832 58.4936
L106.2832 58.4936
" />
<path d="M103.7355 32.0223
L103.7355 31.8066
" />
<path d="M104.4555 32.0223
L104.4555 31.8066
" />
<path d="M115.8426 38.8338
L115.8426 33.3239
" />
<path d="M115.8426 38.8338
L119.1426 38.8338
" />
<path d="M119.1426 38.8338
L119.1426 33.3239
" />
<path d="M103.4338 34.2496
L103.7411 34.2496
" />
<path d="M103.4338 35.0097
L103.7411 35.0097
" />
</g>
<g style="fill:none; 
stroke:#F2EDA1; stroke-width:0.1524; stroke-opacity:1; 
stroke-linecap:round; stroke-linejoin:round;">
<path d="M128.2622 36.8158
L128.2622 37.1816
" />
<path d="M128.2622 42.1143
L128.2622 42.4800
" />
<path d="M128.2622 42.4800
L134.7138 42.4800
" />
<path d="M134.7138 36.8158
L128.2622 36.8158
" />
<path d="M134.7138 37.1816
L134.7138 36.8158
" />
<path d="M134.7138 42.4800
L134.7138 42.1143
" />
<path d="M128.3107 23.1336
L128.3107 23.4994
" />
<path d="M128.3107 28.4321
L128.3107 28.7979
" />
<path d="M128.3107 28.7979
L134.7623 28.7979
" />
<path d="M134.7623 23.1336
L128.3107 23.1336
" />
<path d="M134.7623 23.4994
L134.7623 23.1336
" />
<path d="M134.7623 28.7979
L134.7623 28.4321
" />
<path d="M128.3107 17.0528
L128.3107 17.4186
" />
<path d="M128.3107 22.3513
L128.3107 22.7171
" />
<path d="M128.3107 22.7171
L134.7623 22.7171
" />
<path d="M134.7623 17.0528
L128.3107 17.0528
" />
<path d="M134.7623 17.4186
L134.7623 17.0528
" />
<path d="M134.7623 22.7171
L134.7623 22.3513
" />
</g>
<g style="fill:none; 
stroke:#F2EDA1; stroke-width:0.1200; stroke-opacity:1; 
stroke-linecap:round; stroke-linejoin:round;">
<path d="M99.0001 21.5930
L99.0001 21.8087
" />
<path d="M99.7201 21.5930
L99.7201 21.8087
" />
</g>
<g style="fill:none; 
stroke:#F2EDA1; stroke-width:0.1524; stroke-opacity:1; 
stroke-linecap:round; stroke-linejoin:round;">
<path d="M128.2636 44.2880
L128.2636 44.6538
" />
<path d="M128.2636 49.5865
L128.2636 49.9522
" />
<path d="M128.2636 49.9522
L134.7152 49.9522
" />
<path d="M134.7152 44.2880
L128.2636 44.2880
" />
<path d="M134.7152 44.6538
L134.7152 44.2880
" />
<path d="M134.7152 49.9522
L134.7152 49.5865
" />
</g>
<g style="fill:none; 
stroke:#F2EDA1; stroke-width:0.1200; stroke-opacity:1; 
stroke-linecap:round; stroke-linejoin:round;">
<path d="M124.8619 39.2895
L124.8619 35.4295
" />
<path d="M124.8619 39.2895
L126.8619 39.2895
" />
<path d="M126.8619 39.2895
L126.8619 35.4295
" />
<path d="M136.1257 50.2263
L136.1257 54.5804
" />
<path d="M139.5457 50.2263
L139.5457 54.5804
" />
<path d="M105.1760 57.2727
L105.1760 56.9654
" />
<path d="M105.9360 57.2727
L105.9360 56.9654
" />
<path d="M92.5809 16.2825
L93.9609 16.2825
" />
<path d="M92.5809 17.6624
L92.5809 16.2825
" />
<path d="M92.5809 18.9324
L92.5809 57.1424
" />
<path d="M92.5809 18.9324
L95.3409 18.9324
" />
<path d="M92.5809 57.1424
L95.3409 57.1424
" />
<path d="M95.3409 18.9324
L95.3409 57.1424
" />
<path d="M119.4425 52.1874
L119.4425 50.2374
" />
<path d="M119.4425 52.1874
L119.4425 54.1374
" />
<path d="M124.5625 52.1874
L124.5625 50.2374
" />
<path d="M124.5625 52.1874
L124.5625 54.1374
" />
<path style="fill:#F2EDA1; fill-opacity:1.0000; 
stroke:#F2EDA1; stroke-width:0.1200; stroke-opacity:1; 
stroke-linecap:round; stroke-linejoin:round;fill-rule:evenodd;"
d="M 124.7975,49.7274
124.4675,49.4874
124.7975,49.2474
Z" /> 
</g>
<g style="fill:none; 
stroke:#F2EDA1; stroke-width:0.1200; stroke-opacity:1; 
stroke-linecap:round; stroke-linejoin:round;">
<path d="M103.6272 56.1412
L103.6272 58.4262
" />
<path d="M103.6272 58.4262
L105.0972 58.4262
" />
<path d="M105.0972 58.4262
L105.0972 56.1412
" />
<path d="M126.4774 27.2873
L126.0028 27.2873
" />
<path d="M126.4774 28.3322
L126.0028 28.3322
" />
<path d="M143.8995 25.6822
L143.8995 27.7021
" />
<path d="M143.8995 25.6822
L147.6595 25.6822
" />
<path d="M143.8995 27.7021
L147.6595 27.7021
" />
<path d="M91.3236 16.2825
L92.7036 16.2825
" />
<path d="M91.3236 17.6624
L91.3236 16.2825
" />
<path d="M91.3236 18.9324
L91.3236 57.1424
" />
<path d="M91.3236 18.9324
L94.0836 18.9324
" />
<path d="M91.3236 57.1424
L94.0836 57.1424
" />
<path d="M94.0836 18.9324
L94.0836 57.1424
" />
<path d="M108.7901 31.8066
L108.7901 32.0223
" />
<path d="M109.5101 31.8066
L109.5101 32.0223
" />
<path d="M123.2427 32.1692
L122.7202 32.1692
" />
<path d="M123.2427 33.6392
L122.7202 33.6392
" />
<path d="M104.2681 22.4844
L104.2681 24.0344
" />
<path d="M104.2681 29.6044
L104.2681 28.0544
" />
<path d="M111.2381 22.4844
L104.2681 22.4844
" />
<path d="M111.2381 22.4844
L111.2381 24.0344
" />
<path d="M111.2381 29.6044
L104.2681 29.6044
" />
<path d="M111.2381 29.6044
L111.2381 28.0544
" />
<path d="M126.4434 53.1254
L125.9689 53.1254
" />
<path d="M126.4434 54.1704
L125.9689 54.1704
" />
</g> 
</svg>
